<?xml version="1.0" encoding="UTF-8"?>
<svg width="46px" height="46px" viewBox="0 0 46 46" version="1.1" xmlns="http://www.w3.org/2000/svg" xmlns:xlink="http://www.w3.org/1999/xlink">
    <title>B83DFA61-04EC-433F-945C-B8585A4076A2</title>
    <defs>
        <polygon id="path-1" points="0 0 35.839993 0 35.839993 35.84 0 35.84"></polygon>
    </defs>
    <g id="Web" stroke="none" stroke-width="1" fill="none" fill-rule="evenodd">
        <g id="Domaćinstvo" transform="translate(-570.000000, -1196.000000)">
            <g id="Group-36" transform="translate(570.000000, 1196.000000)">
                <g id="icon-parking">
                    <g id="Group-18" transform="translate(5.000000, 5.000000)">
                        <g id="Group-3">
                            <mask id="mask-2" fill="white">
                                <use xlink:href="#path-1"></use>
                            </mask>
                            <g id="Clip-2"></g>
                            <path d="M34.346683,27.62669 C34.346683,31.33165 31.331643,34.34669 27.626683,34.34669 L8.213303,34.34669 C4.508343,34.34669 1.493303,31.33165 1.493303,27.62669 L1.493303,8.21331 C1.493303,4.50835 4.508343,1.49331 8.213303,1.49331 L27.626613,1.49331 C31.331573,1.49331 34.346683,4.50835 34.346683,8.21331 L34.346683,27.62669 L34.346683,27.62669 Z M27.626683,0 L8.213303,0 C3.684023,0 -7e-06,3.68403 -7e-06,8.21331 L-7e-06,27.62662 C-7e-06,32.15597 3.684023,35.84 8.213303,35.84 L27.626613,35.84 C32.155963,35.84 35.839993,32.15597 35.839993,27.62669 L35.839993,8.21331 C35.839993,3.68403 32.155963,0 27.626683,0 L27.626683,0 Z" id="Fill-1" fill="#000000" mask="url(#mask-2)"></path>
                        </g>
                        <path d="M28.373443,26.88 L27.626613,26.88 C27.214453,26.88 26.879923,27.21453 26.879923,27.62669 L26.879923,30.61338 C26.879923,31.02554 26.545393,31.36007 26.133233,31.36007 C25.721073,31.36007 25.386543,31.02554 25.386543,30.61338 L25.386543,27.62669 C25.386543,27.21453 25.052013,26.88 24.639853,26.88 L11.199993,26.88 C10.787833,26.88 10.453303,27.21453 10.453303,27.62669 L10.453303,30.61338 C10.453303,31.02554 10.118773,31.36007 9.706613,31.36007 C9.294453,31.36007 8.959993,31.02547 8.959993,30.61331 L8.959993,27.62662 C8.959993,27.21446 8.625463,26.87993 8.213303,26.87993 L7.466613,26.87993 L7.466613,20.90662 L8.213303,20.90662 C8.519413,20.90662 8.792693,20.71993 8.906233,20.43622 L11.518073,13.90886 C11.631543,13.62515 11.904823,13.43993 12.211003,13.43993 L23.629053,13.43993 C23.935163,13.43993 24.208443,13.62508 24.321983,13.90886 L26.933823,20.43769 C27.047293,20.71993 27.320573,20.90662 27.626753,20.90662 L28.373443,20.90662 L28.373443,26.88 L28.373443,26.88 Z M29.119993,19.41331 L28.131383,19.41331 L25.709173,13.35334 C25.367223,12.49913 24.550323,11.94662 23.628983,11.94662 L12.211003,11.94662 C11.289593,11.94662 10.474233,12.49913 10.132283,13.35481 L7.708603,19.41324 L6.719993,19.41324 C6.307833,19.41324 5.973303,19.74777 5.973303,20.15993 L5.973303,27.62662 C5.973303,28.03878 6.307833,28.37331 6.719993,28.37331 L7.466683,28.37331 L7.466683,30.61331 C7.466683,31.84832 8.471673,32.85331 9.706683,32.85331 C10.941693,32.85331 11.946683,31.84832 11.946683,30.61331 L11.946683,28.37331 L23.893373,28.37331 L23.893373,30.61331 C23.893373,31.84832 24.898363,32.85331 26.133373,32.85331 C27.368383,32.85331 28.373373,31.84832 28.373373,30.61331 L28.373373,28.37331 L29.119993,28.37331 C29.532153,28.37331 29.866683,28.03878 29.866683,27.62662 L29.866683,20.16 C29.866683,19.74784 29.532153,19.41331 29.119993,19.41331 L29.119993,19.41331 Z" id="Fill-4" fill="#000000"></path>
                        <path d="M11.199993,23.893317 C10.787833,23.893317 10.453303,23.558787 10.453303,23.146627 C10.453303,22.734467 10.787833,22.400007 11.199993,22.400007 C11.612153,22.400007 11.946683,22.734537 11.946683,23.146697 C11.946683,23.558857 11.612153,23.893317 11.199993,23.893317 M11.199993,20.906697 C9.964983,20.906697 8.959993,21.911687 8.959993,23.146697 C8.959993,24.381707 9.964983,25.386697 11.199993,25.386697 C12.435003,25.386697 13.439993,24.381707 13.439993,23.146697 C13.439993,21.911687 12.435003,20.906697 11.199993,20.906697" id="Fill-6" fill="#319647"></path>
                        <path d="M24.639993,23.893317 C24.227833,23.893317 23.893303,23.558787 23.893303,23.146627 C23.893303,22.734467 24.227833,22.400007 24.639993,22.400007 C25.052153,22.400007 25.386683,22.734537 25.386683,23.146697 C25.386683,23.558857 25.052153,23.893317 24.639993,23.893317 M24.639993,20.906697 C23.404983,20.906697 22.399993,21.911687 22.399993,23.146697 C22.399993,24.381707 23.404983,25.386697 24.639993,25.386697 C25.875003,25.386697 26.879993,24.381707 26.879993,23.146697 C26.879993,21.911687 25.875003,20.906697 24.639993,20.906697" id="Fill-8" fill="#319647"></path>
                        <path d="M11.199993,8.96 C9.964983,8.96 8.959993,7.95501 8.959993,6.72 C8.959993,5.48499 9.964983,4.48 11.199993,4.48 C12.435003,4.48 13.439993,5.48499 13.439993,6.72 C13.439993,7.95501 12.435003,8.96 11.199993,8.96 M11.199993,2.98669 C9.142203,2.98669 7.466683,4.66221 7.466683,6.72 C7.466683,8.77772 9.142203,10.45331 11.199993,10.45331 C13.257783,10.45331 14.933303,8.77772 14.933303,6.72 C14.933303,4.66221 13.257783,2.98669 11.199993,2.98669" id="Fill-10" fill="#319647"></path>
                        <path d="M27.626683,5.97331 L14.186683,5.97331 C13.774523,5.97331 13.439993,6.30784 13.439993,6.72 C13.439993,7.13216 13.774523,7.46669 14.186683,7.46669 L27.626683,7.46669 C28.038843,7.46669 28.373373,7.13216 28.373373,6.72 C28.373373,6.30784 28.038843,5.97331 27.626683,5.97331" id="Fill-12" fill="#319647"></path>
                        <path d="M26.133303,5.97331 C25.721143,5.97331 25.386613,6.30784 25.386613,6.72 L25.386613,9.70669 C25.386613,10.11885 25.721143,10.45338 26.133303,10.45338 C26.545463,10.45338 26.879993,10.11885 26.879993,9.70669 L26.879993,6.72 C26.879993,6.30784 26.545463,5.97331 26.133303,5.97331" id="Fill-14" fill="#319647"></path>
                        <path d="M23.146683,5.97331 C22.734523,5.97331 22.399993,6.30784 22.399993,6.72 L22.399993,9.70669 C22.399993,10.11885 22.734523,10.45338 23.146683,10.45338 C23.558843,10.45338 23.893373,10.11885 23.893373,9.70669 L23.893373,6.72 C23.893303,6.30784 23.558843,5.97331 23.146683,5.97331" id="Fill-16" fill="#319647"></path>
                    </g>
                    <rect id="Rectangle-Copy-11" x="0" y="0" width="46" height="46"></rect>
                </g>
            </g>
        </g>
    </g>
</svg>