<?xml version="1.0" encoding="UTF-8"?>
<svg width="46px" height="46px" viewBox="0 0 46 46" version="1.1" xmlns="http://www.w3.org/2000/svg" xmlns:xlink="http://www.w3.org/1999/xlink">
    <title>253EA314-5A5A-4F84-B6AA-ADE3D958AE78</title>
    <defs>
        <polygon id="path-1" points="0 0.04521085 7.46501693 0.04521085 7.46501693 3.033317 0 3.033317"></polygon>
        <polygon id="path-3" points="0.0466829223 0.04521085 7.5117 0.04521085 7.5117 3.033317 0.0466829223 3.033317"></polygon>
        <polygon id="path-5" points="0 0.06852785 7.46501693 0.06852785 7.46501693 3.056564 0 3.056564"></polygon>
        <polygon id="path-7" points="0.0466829223 0.06852785 7.5117 0.06852785 7.5117 3.056564 0.0466829223 3.056564"></polygon>
    </defs>
    <g id="Web" stroke="none" stroke-width="1" fill="none" fill-rule="evenodd">
        <g id="Domaćinstvo" transform="translate(-570.000000, -1266.000000)">
            <g id="Group-37" transform="translate(570.000000, 1266.000000)">
                <g id="icon-pool">
                    <g id="Group-39" transform="translate(6.000000, 11.000000)">
                        <path d="M14.186536,13.439972 L6.719846,13.439972 C6.307686,13.439972 5.973156,13.774502 5.973156,14.186662 C5.973156,14.598892 6.307686,14.933352 6.719846,14.933352 L14.186536,14.933352 C14.600166,14.933352 14.933226,14.598892 14.933226,14.186662 C14.933226,13.774502 14.598696,13.439972 14.186536,13.439972" id="Fill-1" fill="#319647"></path>
                        <path d="M14.186536,4.480007 L7.466536,4.480007 C7.054376,4.480007 6.719846,4.814537 6.719846,5.226697 C6.719846,5.638857 7.054376,5.973387 7.466536,5.973387 L14.186536,5.973387 C14.600166,5.973387 14.933226,5.638857 14.933226,5.226697 C14.933226,4.814537 14.600166,4.480007 14.186536,4.480007" id="Fill-3" fill="#319647"></path>
                        <path d="M14.186536,8.960007 L6.719846,8.960007 C6.307686,8.960007 5.973156,9.294537 5.973156,9.706697 C5.973156,10.118857 6.307686,10.453387 6.719846,10.453387 L14.186536,10.453387 C14.600166,10.453387 14.933226,10.118857 14.933226,9.706697 C14.933226,9.294537 14.598696,8.960007 14.186536,8.960007" id="Fill-5" fill="#319647"></path>
                        <g id="Group-9" transform="translate(0.000000, 8.913380)">
                            <mask id="mask-2" fill="white">
                                <use xlink:href="#path-1"></use>
                            </mask>
                            <g id="Clip-8"></g>
                            <path d="M7.118552,0.167587 C6.772122,-0.051933 6.315162,0.049637 6.089622,0.391587 C6.059732,0.439397 5.322072,1.539937 3.733142,1.539937 C2.153172,1.539937 1.413972,0.451297 1.376662,0.393057 C1.155672,0.045087 0.694232,-0.059423 0.350742,0.160097 C0.001302,0.378147 -0.104748,0.839587 0.113302,1.189027 C0.159572,1.263717 1.293012,3.033317 3.733142,3.033317 C6.173272,3.033317 7.306712,1.263717 7.351512,1.190567 C7.569562,0.842597 7.463512,0.387107 7.118552,0.167587" id="Fill-7" fill="#000000" mask="url(#mask-2)"></path>
                        </g>
                        <path d="M20.558552,9.080967 C20.212122,8.861447 19.755162,8.963017 19.529622,9.304967 C19.499732,9.352777 18.762072,10.453317 17.173142,10.453317 C15.593172,10.453317 14.853972,9.364677 14.816662,9.306437 C14.595672,8.958467 14.134232,8.853957 13.790742,9.073477 C13.441302,9.291527 13.335252,9.752967 13.553302,10.102407 C13.599572,10.177097 14.733012,11.946697 17.173142,11.946697 C19.613272,11.946697 20.746712,10.177097 20.791512,10.103947 C21.009562,9.755977 20.903512,9.300487 20.558552,9.080967" id="Fill-10" fill="#000000"></path>
                        <path d="M26.531932,9.080967 C26.186972,8.861447 25.728542,8.963017 25.503002,9.304967 C25.473112,9.352777 24.735452,10.453317 23.146522,10.453317 C21.566552,10.453317 20.827352,9.364677 20.790042,9.306437 C20.569052,8.958467 20.107612,8.853957 19.764122,9.073477 C19.414682,9.291527 19.308632,9.752967 19.526682,10.102407 C19.572952,10.177097 20.706392,11.946697 23.146522,11.946697 C25.586652,11.946697 26.720092,10.177097 26.764892,10.103947 C26.982872,9.755977 26.876892,9.300487 26.531932,9.080967" id="Fill-12" fill="#000000"></path>
                        <g id="Group-16" transform="translate(25.340000, 8.913380)">
                            <mask id="mask-4" fill="white">
                                <use xlink:href="#path-3"></use>
                            </mask>
                            <g id="Clip-15"></g>
                            <path d="M7.165242,0.167587 C6.820282,-0.051933 6.360312,0.049637 6.136312,0.391587 C6.106422,0.439397 5.368762,1.539937 3.779832,1.539937 C2.199862,1.539937 1.460662,0.451297 1.423352,0.393057 C1.202362,0.045087 0.742392,-0.059423 0.397432,0.160097 C0.047992,0.378147 -0.058058,0.839587 0.159992,1.189027 C0.206262,1.263717 1.339702,3.033317 3.779832,3.033317 C6.219962,3.033317 7.353402,1.263717 7.398202,1.190567 C7.616252,0.842597 7.510202,0.387107 7.165242,0.167587" id="Fill-14" fill="#000000" mask="url(#mask-4)"></path>
                        </g>
                        <g id="Group-19" transform="translate(0.000000, 14.863380)">
                            <mask id="mask-6" fill="white">
                                <use xlink:href="#path-5"></use>
                            </mask>
                            <g id="Clip-18"></g>
                            <path d="M7.118552,0.190904 C6.772122,-0.028616 6.315162,0.072884 6.089622,0.414904 C6.059732,0.462714 5.322072,1.563184 3.733142,1.563184 C2.153172,1.563184 1.413972,0.474614 1.376662,0.416374 C1.155672,0.068404 0.694232,-0.036106 0.350742,0.183414 C0.001302,0.401464 -0.104748,0.862904 0.113302,1.212344 C0.159572,1.287034 1.293012,3.056564 3.733142,3.056564 C6.173272,3.056564 7.306712,1.287034 7.351512,1.213884 C7.569562,0.865914 7.463512,0.410424 7.118552,0.190904" id="Fill-17" fill="#000000" mask="url(#mask-6)"></path>
                        </g>
                        <path d="M20.558552,15.054284 C20.212122,14.834764 19.755162,14.936264 19.529622,15.278284 C19.499732,15.326094 18.762072,16.426564 17.173142,16.426564 C15.593172,16.426564 14.853972,15.337994 14.816662,15.279754 C14.595672,14.931784 14.134232,14.827274 13.790742,15.046794 C13.441302,15.264844 13.335252,15.726284 13.553302,16.075724 C13.599572,16.150414 14.733012,17.919944 17.173142,17.919944 C19.613272,17.919944 20.746712,16.150414 20.791512,16.077264 C21.009562,15.729294 20.903512,15.273804 20.558552,15.054284" id="Fill-20" fill="#000000"></path>
                        <path d="M26.531932,15.054284 C26.186972,14.834764 25.728542,14.936264 25.503002,15.278284 C25.473112,15.326094 24.735452,16.426564 23.146522,16.426564 C21.566552,16.426564 20.827352,15.337994 20.790042,15.279754 C20.569052,14.931784 20.107612,14.827274 19.764122,15.046794 C19.414682,15.264844 19.308632,15.726284 19.526682,16.075724 C19.572952,16.150414 20.706392,17.919944 23.146522,17.919944 C25.586652,17.919944 26.720092,16.150414 26.764892,16.077264 C26.982872,15.729294 26.876892,15.273804 26.531932,15.054284" id="Fill-22" fill="#000000"></path>
                        <path d="M20.558552,21.027657 C20.212122,20.808137 19.755162,20.909637 19.529622,21.251657 C19.499732,21.299467 18.762072,22.399937 17.173142,22.399937 C15.593172,22.399937 14.853972,21.311367 14.816662,21.253127 C14.595672,20.905157 14.134232,20.802117 13.790742,21.020167 C13.441302,21.238217 13.335252,21.699657 13.553302,22.049097 C13.599572,22.123787 14.733012,23.893317 17.173142,23.893317 C19.613272,23.893317 20.746712,22.123787 20.791512,22.050637 C21.009562,21.702597 20.903512,21.247177 20.558552,21.027657" id="Fill-24" fill="#000000"></path>
                        <path d="M14.585242,21.027657 C14.238812,20.808137 13.781852,20.909637 13.556312,21.251657 C13.526422,21.299467 12.788762,22.399937 11.199832,22.399937 C9.619862,22.399937 8.880662,21.311367 8.843352,21.253127 C8.622362,20.905157 8.160922,20.802117 7.817432,21.020167 C7.467992,21.238217 7.361942,21.699657 7.579992,22.049097 C7.626262,22.123787 8.759702,23.893317 11.199832,23.893317 C13.639962,23.893317 14.773402,22.123787 14.818202,22.050637 C15.036252,21.702597 14.930202,21.247177 14.585242,21.027657" id="Fill-26" fill="#000000"></path>
                        <path d="M8.611932,21.027657 C8.265502,20.808137 7.808542,20.909637 7.583002,21.251657 C7.553112,21.299467 6.815452,22.399937 5.226522,22.399937 C3.646552,22.399937 2.907352,21.311367 2.870042,21.253127 C2.649052,20.905157 2.187612,20.802117 1.844122,21.020167 C1.494682,21.238217 1.388632,21.699657 1.606682,22.049097 C1.652952,22.123787 2.786392,23.893317 5.226522,23.893317 C7.666652,23.893317 8.800092,22.123787 8.844892,22.050637 C9.062872,21.702597 8.956892,21.247177 8.611932,21.027657" id="Fill-28" fill="#000000"></path>
                        <path d="M26.531932,21.027657 C26.186972,20.808137 25.728542,20.909637 25.503002,21.251657 C25.473112,21.299467 24.735452,22.399937 23.146522,22.399937 C21.566552,22.399937 20.827352,21.311367 20.790042,21.253127 C20.569052,20.905157 20.107612,20.802117 19.764122,21.020167 C19.414682,21.238217 19.308632,21.699657 19.526682,22.049097 C19.572952,22.123787 20.706392,23.893317 23.146522,23.893317 C25.586652,23.893317 26.720092,22.123787 26.764892,22.050637 C26.982872,21.702597 26.876892,21.247177 26.531932,21.027657" id="Fill-30" fill="#000000"></path>
                        <g id="Group-34" transform="translate(25.340000, 14.863380)">
                            <mask id="mask-8" fill="white">
                                <use xlink:href="#path-7"></use>
                            </mask>
                            <g id="Clip-33"></g>
                            <path d="M7.165242,0.190904 C6.820282,-0.028616 6.360312,0.072884 6.136312,0.414904 C6.106422,0.462714 5.368762,1.563184 3.779832,1.563184 C2.199862,1.563184 1.460662,0.474614 1.423352,0.416374 C1.202362,0.068404 0.742392,-0.036106 0.397432,0.183414 C0.047992,0.401464 -0.058058,0.862904 0.159992,1.212344 C0.206262,1.287034 1.339702,3.056564 3.779832,3.056564 C6.219962,3.056564 7.353402,1.287034 7.398202,1.213884 C7.616252,0.865914 7.510202,0.410424 7.165242,0.190904" id="Fill-32" fill="#000000" mask="url(#mask-8)"></path>
                        </g>
                        <path d="M17.173226,7e-06 C15.113896,7e-06 13.439916,1.675527 13.439916,3.733317 L13.439916,18.666627 C13.439916,19.078787 13.774446,19.413317 14.186606,19.413317 C14.600236,19.413317 14.933296,19.078787 14.933296,18.666627 L14.933296,3.733317 C14.933296,2.498307 15.938286,1.493317 17.173296,1.493317 C17.586926,1.493317 17.919986,1.158787 17.919986,0.746627 C17.919986,0.334467 17.586856,7e-06 17.173226,7e-06" id="Fill-35" fill="#000000"></path>
                        <path d="M9.706536,7e-06 C7.647206,7e-06 5.973226,1.675527 5.973226,3.733317 L5.973226,18.666627 C5.973226,19.078787 6.307756,19.413317 6.719916,19.413317 C7.133546,19.413317 7.466606,19.078787 7.466606,18.666627 L7.466606,3.733317 C7.466606,2.498307 8.471596,1.493317 9.706606,1.493317 C10.120236,1.493317 10.453296,1.158787 10.453296,0.746627 C10.453296,0.334467 10.120166,7e-06 9.706536,7e-06" id="Fill-37" fill="#000000"></path>
                    </g>
                    <rect id="Rectangle-Copy-6" x="0" y="0" width="46" height="46"></rect>
                </g>
            </g>
        </g>
    </g>
</svg>