<?xml version="1.0" encoding="UTF-8"?>
<svg width="35px" height="31px" viewBox="0 0 35 31" version="1.1" xmlns="http://www.w3.org/2000/svg" xmlns:xlink="http://www.w3.org/1999/xlink">
    <title>F1BD089E-508F-4AA0-B6DF-AE4A47D3D363</title>
    <defs>
        <polygon id="path-1" points="7e-06 0.023324 34.34669 0.023324 34.34669 7.49 7e-06 7.49"></polygon>
        <polygon id="path-3" points="7e-06 0.023324 34.34669 0.023324 34.34669 1.516704 7e-06 1.516704"></polygon>
    </defs>
    <g id="Web" stroke="none" stroke-width="1" fill="none" fill-rule="evenodd">
        <g id="Domaćinstvo" transform="translate(-246.000000, -941.000000)">
            <g id="bedrooms" transform="translate(222.000000, 923.000000)">
                <g id="bed" transform="translate(24.000000, 18.000000)">
                    <path d="M18.666697,8.960014 L15.680007,8.960014 C15.267847,8.960014 14.933317,9.294544 14.933317,9.706704 C14.933317,10.118864 15.267847,10.453394 15.680007,10.453394 L18.666697,10.453394 C19.078857,10.453394 19.413387,10.118864 19.413387,9.706704 C19.413387,9.294544 19.078857,8.960014 18.666697,8.960014" id="Fill-1" fill="#000000"></path>
                    <g id="Group-5" transform="translate(0.000000, 22.376690)">
                        <mask id="mask-2" fill="white">
                            <use xlink:href="#path-1"></use>
                        </mask>
                        <g id="Clip-4"></g>
                        <path d="M33.600007,0.023324 L0.746697,0.023324 C0.334537,0.023324 7e-06,0.357854 7e-06,0.770014 L7e-06,6.743324 C7e-06,7.155484 0.334537,7.490014 0.746697,7.490014 C1.158857,7.490014 1.493317,7.155484 1.493317,6.743324 L1.493317,1.516634 L32.853317,1.516634 L32.853317,6.743324 C32.853317,7.155484 33.187847,7.490014 33.600007,7.490014 C34.012167,7.490014 34.346697,7.155484 34.346697,6.743324 L34.346697,0.770014 C34.346697,0.357854 34.012167,0.023324 33.600007,0.023324" id="Fill-3" fill="#000000" mask="url(#mask-2)"></path>
                    </g>
                    <g id="Group-8" transform="translate(0.000000, 26.856690)">
                        <mask id="mask-4" fill="white">
                            <use xlink:href="#path-3"></use>
                        </mask>
                        <g id="Clip-7"></g>
                        <path d="M33.600007,0.023324 L0.746697,0.023324 C0.334537,0.023324 7e-06,0.357854 7e-06,0.770014 C7e-06,1.182174 0.334537,1.516704 0.746697,1.516704 L33.600007,1.516704 C34.012167,1.516704 34.346697,1.182174 34.346697,0.770014 C34.346697,0.357854 34.012167,0.023324 33.600007,0.023324" id="Fill-6" fill="#000000" mask="url(#mask-4)"></path>
                    </g>
                    <path d="M33.600007,16.426704 C33.187847,16.426704 32.853317,16.761234 32.853317,17.173394 L32.853317,19.628434 L28.309127,9.403604 C28.140357,9.025814 27.701317,8.854034 27.323527,9.024274 C26.945737,9.191504 26.776967,9.633554 26.944197,10.009874 L32.917507,23.449874 C33.039937,23.723154 33.310277,23.893394 33.599937,23.893394 C33.650687,23.893394 33.702977,23.888914 33.755267,23.876944 C34.100227,23.803794 34.346627,23.499154 34.346627,23.146704 L34.346627,17.173394 C34.346627,16.761164 34.012167,16.426704 33.600007,16.426704" id="Fill-9" fill="#000000"></path>
                    <path d="M8.960007,8.960014 L6.720007,8.960014 C6.424327,8.960014 6.158537,9.133264 6.037577,9.403534 L1.493317,19.628364 L1.493317,17.173324 C1.493317,16.761164 1.158787,16.426634 0.746627,16.426634 C0.334467,16.426634 7e-06,16.761164 7e-06,17.173324 L7e-06,23.146634 C7e-06,23.499084 0.246407,23.803724 0.591367,23.876874 C0.643657,23.888844 0.695877,23.893324 0.746697,23.893324 C1.036427,23.893324 1.306697,23.723084 1.429127,23.449804 L7.205317,10.453324 L8.960007,10.453324 C9.372167,10.453324 9.706697,10.118794 9.706697,9.706634 C9.706697,9.294474 9.372167,8.960014 8.960007,8.960014" id="Fill-11" fill="#000000"></path>
                    <path d="M24.640007,1.4e-05 L9.706697,1.4e-05 C7.648907,1.4e-05 5.973387,1.675534 5.973387,3.733324 L5.973387,9.706634 C5.973387,10.118794 6.307917,10.453394 6.720077,10.453394 C7.132237,10.453394 7.466767,10.118794 7.466767,9.706634 L7.466767,3.733324 C7.466767,2.498314 8.471757,1.493324 9.706767,1.493324 L24.640007,1.493324 C25.875017,1.493324 26.880007,2.498314 26.880007,3.733324 L26.880007,8.960014 L25.386697,8.960014 C24.974537,8.960014 24.640007,9.294544 24.640007,9.706704 C24.640007,10.118864 24.974537,10.453394 25.386697,10.453394 L27.626697,10.453394 C28.038857,10.453394 28.373387,10.118864 28.373387,9.706704 L28.373387,3.733324 C28.373387,1.675534 26.697797,1.4e-05 24.640007,1.4e-05" id="Fill-13" fill="#000000"></path>
                    <path d="M14.933317,11.200014 C14.933317,11.612174 14.598787,11.946704 14.186627,11.946704 L10.651907,11.946704 C10.433857,11.946704 10.235267,11.857104 10.091907,11.694354 C9.948547,11.531604 9.884357,11.323984 9.911237,11.107474 L10.284547,8.120784 C10.330817,7.747474 10.648897,7.466704 11.025217,7.466704 L14.186627,7.466704 C14.598787,7.466704 14.933317,7.801234 14.933317,8.213394 L14.933317,11.200014 Z M14.186697,5.973324 L11.025287,5.973324 C9.897797,5.973324 8.942087,6.817034 8.803207,7.935564 L8.429897,10.922254 C8.349257,11.559884 8.547847,12.200524 8.971977,12.682894 C9.397577,13.163724 10.009867,13.440014 10.651977,13.440014 L14.186697,13.440014 C15.421707,13.440014 16.426697,12.435024 16.426697,11.200014 L16.426697,8.213324 C16.426697,6.978384 15.421637,5.973324 14.186697,5.973324 L14.186697,5.973324 Z" id="Fill-15" fill="#319647"></path>
                    <path d="M24.254734,11.694284 C24.111374,11.857034 23.912784,11.946634 23.694734,11.946634 L20.160014,11.946634 C19.747854,11.946634 19.413324,11.612104 19.413324,11.199944 L19.413324,8.213254 C19.413324,7.801094 19.747854,7.466564 20.160014,7.466564 L23.321424,7.466564 C23.697744,7.466564 24.015824,7.747334 24.062094,8.120644 L24.435404,11.107334 C24.462284,11.322444 24.398094,11.531534 24.254734,11.694284 M25.916814,10.922254 L25.543504,7.935564 C25.404624,6.817034 24.448914,5.973324 23.321424,5.973324 L20.160014,5.973324 C18.925004,5.973324 17.920014,6.978314 17.920014,8.213324 L17.920014,11.200014 C17.920014,12.435024 18.925004,13.440014 20.160014,13.440014 L23.694734,13.440014 C24.336844,13.440014 24.949134,13.163724 25.373264,12.682894 C25.798864,12.200524 25.995984,11.559884 25.916814,10.922254" id="Fill-17" fill="#319647"></path>
                </g>
            </g>
        </g>
    </g>
</svg>