<?xml version="1.0" encoding="UTF-8"?>
<svg width="46px" height="46px" viewBox="0 0 46 46" version="1.1" xmlns="http://www.w3.org/2000/svg" xmlns:xlink="http://www.w3.org/1999/xlink">
    <title>5BA03291-CCE0-4CCA-8025-3F9D96DFEB90</title>
    <defs>
        <polygon id="path-1" points="7e-06 0.046571 32.85331 0.046571 32.85331 20.953191 7e-06 20.953191"></polygon>
        <polygon id="path-3" points="0.023317 -4.9e-05 1.516697 -4.9e-05 1.516697 4.48 0.023317 4.48"></polygon>
        <polygon id="path-5" points="0.046627 -4.9e-05 1.540007 -4.9e-05 1.540007 4.48 0.046627 4.48"></polygon>
    </defs>
    <g id="Web" stroke="none" stroke-width="1" fill="none" fill-rule="evenodd">
        <g id="Domaćinstvo" transform="translate(-570.000000, -1056.000000)">
            <g id="Group-33" transform="translate(570.000000, 1056.000000)">
                <g id="icon-heater">
                    <g id="Group-28" transform="translate(7.000000, 5.000000)">
                        <path d="M11.189514,4.982474 C10.575754,3.741514 10.091914,2.761864 11.159624,1.159564 C11.388104,0.816074 11.294024,0.353164 10.952074,0.124684 C10.613064,-0.102326 10.147144,-0.011186 9.917194,0.332234 C8.370124,2.649864 9.191434,4.310474 9.851464,5.644044 C10.468234,6.892494 10.914694,7.794444 9.917194,9.292234 C9.687244,9.635724 9.781324,10.098634 10.123274,10.327114 C10.250184,10.412234 10.395084,10.452554 10.538444,10.452554 C10.778894,10.452554 11.014794,10.336074 11.158154,10.119564 C12.635084,7.906444 11.834634,6.284684 11.189514,4.982474" id="Fill-1" fill="#000000"></path>
                        <path d="M17.138933,4.982474 C16.523703,3.741514 16.039863,2.761864 17.107573,1.159564 C17.336053,0.816074 17.241973,0.353164 16.900023,0.124684 C16.561013,-0.102326 16.093623,-0.011186 15.865143,0.332234 C14.319543,2.651404 15.140853,4.311944 15.799413,5.645514 C16.416183,6.893964 16.862643,7.795914 15.865143,9.292234 C15.636663,9.635724 15.730743,10.098634 16.072693,10.327114 C16.199603,10.412234 16.342963,10.452554 16.486323,10.452554 C16.726773,10.452554 16.962673,10.336074 17.107573,10.119564 C18.584503,7.906444 17.784053,6.284684 17.138933,4.982474" id="Fill-3" fill="#000000"></path>
                        <path d="M23.086882,4.982474 C22.471652,3.741514 21.987882,2.761864 23.055592,1.159564 C23.284002,0.816074 23.189992,0.353164 22.847972,0.124684 C22.508962,-0.102326 22.041572,-0.011186 21.813162,0.332234 C20.267562,2.651404 21.088802,4.311944 21.747362,5.645514 C22.364202,6.893964 22.810662,7.795914 21.813162,9.292234 C21.584612,9.635724 21.678762,10.098634 22.020712,10.327114 C22.147552,10.412234 22.290912,10.452554 22.434342,10.452554 C22.676262,10.452554 22.912162,10.336074 23.055592,10.119564 C24.532452,7.906444 23.732072,6.284684 23.086882,4.982474" id="Fill-5" fill="#000000"></path>
                        <g id="Group-9" transform="translate(0.000000, 11.899300)">
                            <mask id="mask-2" fill="white">
                                <use xlink:href="#path-1"></use>
                            </mask>
                            <g id="Clip-8"></g>
                            <path d="M31.360007,17.219951 C31.360007,18.454961 30.355017,19.459951 29.120007,19.459951 L3.733317,19.459951 C2.498307,19.459951 1.493317,18.454961 1.493317,17.219951 L1.493317,3.779951 C1.493317,2.544941 2.498307,1.539951 3.733317,1.539951 L29.120007,1.539951 C30.355017,1.539951 31.360007,2.544941 31.360007,3.779951 L31.360007,17.219951 Z M29.120007,0.046571 L3.733317,0.046571 C1.673987,0.046571 7e-06,1.722091 7e-06,3.779881 L7e-06,17.219881 C7e-06,19.277671 1.674057,20.953191 3.733317,20.953191 L29.120007,20.953191 C31.179337,20.953191 32.853317,19.277671 32.853317,17.219881 L32.853317,3.779881 C32.853317,1.722091 31.179267,0.046571 29.120007,0.046571 L29.120007,0.046571 Z" id="Fill-7" fill="#000000" mask="url(#mask-2)"></path>
                        </g>
                        <path d="M5.226627,14.932526 C4.814467,14.932526 4.479937,15.267056 4.479937,15.679216 L4.479937,29.119216 C4.479937,29.531376 4.814467,29.865906 5.226627,29.865906 C5.638787,29.865906 5.973317,29.531376 5.973317,29.119216 L5.973317,15.679216 C5.973317,15.267056 5.638787,14.932526 5.226627,14.932526" id="Fill-10" fill="#319647"></path>
                        <path d="M9.706627,14.932526 C9.294467,14.932526 8.959937,15.267056 8.959937,15.679216 L8.959937,29.119216 C8.959937,29.531376 9.294467,29.865906 9.706627,29.865906 C10.118787,29.865906 10.453317,29.531376 10.453317,29.119216 L10.453317,15.679216 C10.453317,15.267056 10.118787,14.932526 9.706627,14.932526" id="Fill-12" fill="#319647"></path>
                        <path d="M14.186627,14.932526 C13.774467,14.932526 13.439937,15.267056 13.439937,15.679216 L13.439937,29.119216 C13.439937,29.531376 13.774467,29.865906 14.186627,29.865906 C14.598787,29.865906 14.933317,29.531376 14.933317,29.119216 L14.933317,15.679216 C14.933317,15.267056 14.598787,14.932526 14.186627,14.932526" id="Fill-14" fill="#319647"></path>
                        <path d="M18.666627,14.932526 C18.254467,14.932526 17.919937,15.267056 17.919937,15.679216 L17.919937,29.119216 C17.919937,29.531376 18.254467,29.865906 18.666627,29.865906 C19.078787,29.865906 19.413317,29.531376 19.413317,29.119216 L19.413317,15.679216 C19.413317,15.267056 19.078787,14.932526 18.666627,14.932526" id="Fill-16" fill="#319647"></path>
                        <path d="M23.146627,14.932526 C22.734467,14.932526 22.399937,15.267056 22.399937,15.679216 L22.399937,29.119216 C22.399937,29.531376 22.734467,29.865906 23.146627,29.865906 C23.558787,29.865906 23.893317,29.531376 23.893317,29.119216 L23.893317,15.679216 C23.893317,15.267056 23.558787,14.932526 23.146627,14.932526" id="Fill-18" fill="#319647"></path>
                        <path d="M27.626627,14.932526 C27.214467,14.932526 26.879937,15.267056 26.879937,15.679216 L26.879937,29.119216 C26.879937,29.531376 27.214467,29.865906 27.626627,29.865906 C28.038787,29.865906 28.373317,29.531376 28.373317,29.119216 L28.373317,15.679216 C28.373317,15.267056 28.038787,14.932526 27.626627,14.932526" id="Fill-20" fill="#319647"></path>
                        <g id="Group-24" transform="translate(5.950000, 31.359300)">
                            <mask id="mask-4" fill="white">
                                <use xlink:href="#path-3"></use>
                            </mask>
                            <g id="Clip-23"></g>
                            <path d="M0.770007,-4.9e-05 C0.357847,-4.9e-05 0.023317,0.334411 0.023317,0.746641 L0.023317,3.733331 C0.023317,4.145491 0.357847,4.480021 0.770007,4.480021 C1.182167,4.480021 1.516697,4.145491 1.516697,3.733331 L1.516697,0.746641 C1.516627,0.334341 1.182167,-4.9e-05 0.770007,-4.9e-05" id="Fill-22" fill="#000000" mask="url(#mask-4)"></path>
                        </g>
                        <g id="Group-27" transform="translate(25.340000, 31.359300)">
                            <mask id="mask-6" fill="white">
                                <use xlink:href="#path-5"></use>
                            </mask>
                            <g id="Clip-26"></g>
                            <path d="M0.793317,-4.9e-05 C0.381157,-4.9e-05 0.046627,0.334411 0.046627,0.746641 L0.046627,3.733331 C0.046627,4.145491 0.381157,4.480021 0.793317,4.480021 C1.205477,4.480021 1.540007,4.145491 1.540007,3.733331 L1.540007,0.746641 C1.540007,0.334341 1.205477,-4.9e-05 0.793317,-4.9e-05" id="Fill-25" fill="#000000" mask="url(#mask-6)"></path>
                        </g>
                    </g>
                    <rect id="Rectangle-Copy-13" x="0" y="0" width="46" height="46"></rect>
                </g>
            </g>
        </g>
    </g>
</svg>