<?xml version="1.0" encoding="UTF-8"?>
<svg width="46px" height="46px" viewBox="0 0 46 46" version="1.1" xmlns="http://www.w3.org/2000/svg" xmlns:xlink="http://www.w3.org/1999/xlink">
    <title>EEB0DFE8-541D-44A7-BD60-56795F4B4D68</title>
    <defs>
        <polygon id="path-1" points="0 -7.7e-05 11.7856941 -7.7e-05 11.7856941 35.839993 0 35.839993"></polygon>
        <polygon id="path-3" points="0.060774 -0.00035 7.52738 -0.00035 7.52738 35.839846 0.060774 35.839846"></polygon>
    </defs>
    <g id="Web" stroke="none" stroke-width="1" fill="none" fill-rule="evenodd">
        <g id="Domaćinstvo" transform="translate(-223.000000, -1056.000000)">
            <g id="Group-32" transform="translate(223.000000, 1056.000000)">
                <g id="icon-kitchen">
                    <g id="Group-7" transform="translate(11.000000, 5.000000)">
                        <g id="Group-3" transform="translate(0.000000, 0.000350)">
                            <mask id="mask-2" fill="white">
                                <use xlink:href="#path-1"></use>
                            </mask>
                            <g id="Clip-2"></g>
                            <path d="M7.242606,14.695863 C6.915566,14.801913 6.703536,15.116983 6.727406,15.458933 L7.919086,32.170803 C7.960876,32.738363 7.769776,33.281843 7.381486,33.698483 C6.607916,34.530293 5.183276,34.539253 4.400816,33.698483 C4.014066,33.281843 3.822896,32.739763 3.863216,32.170803 L5.056366,15.457393 C5.078766,15.115443 4.868206,14.800303 4.541166,14.694323 C2.486316,14.029813 1.224496,12.009333 1.542576,9.891763 L1.947246,7.194803 L2.068206,8.652273 C2.151856,9.661743 3.012016,10.453233 4.025966,10.453233 C4.884656,10.453233 5.632816,9.885743 5.892656,9.097263 C6.152496,9.885743 6.900656,10.453233 7.759346,10.453233 C8.771826,10.453233 9.633456,9.661743 9.717106,8.653743 L9.838066,7.196273 L10.242736,9.893233 C10.560746,12.010873 9.298926,14.031353 7.242606,14.695863 M11.719596,9.670773 L10.365166,0.636153 C10.311406,0.268793 9.996336,-7.7e-05 9.627436,-7.7e-05 L9.602026,-7.7e-05 C9.224236,0.011963 8.915116,0.306103 8.883756,0.683963 L8.229676,8.526973 C8.189356,9.010813 7.330666,9.010813 7.290346,8.526973 L6.636266,0.683893 C6.604906,0.297143 6.280876,-7.7e-05 5.892586,-7.7e-05 C5.504296,-7.7e-05 5.180266,0.297073 5.150376,0.683893 L4.496296,8.526903 C4.455976,9.010743 3.597286,9.010743 3.556966,8.526903 L2.902956,0.683893 C2.871596,0.307573 2.562476,0.013363 2.184686,-7.7e-05 L2.159276,-7.7e-05 C1.790446,-7.7e-05 1.475306,0.268723 1.420076,0.636083 L0.065646,9.670773 C-0.331604,12.318453 1.105006,14.849653 3.527216,15.906933 L2.374386,32.064823 C2.305716,33.036983 2.646196,34.003193 3.310706,34.716983 C3.973746,35.430773 4.914546,35.839993 5.895666,35.839993 C6.870836,35.839993 7.811636,35.430843 8.476146,34.716983 C9.140656,34.003193 9.481136,33.036983 9.412466,32.064823 L8.259636,15.906933 C10.681706,14.851193 12.118316,12.318453 11.719596,9.670773" id="Fill-1" fill="#000000" mask="url(#mask-2)"></path>
                        </g>
                        <g id="Group-6" transform="translate(15.540000, 0.000350)">
                            <mask id="mask-4" fill="white">
                                <use xlink:href="#path-3"></use>
                            </mask>
                            <g id="Clip-5"></g>
                            <path d="M6.031144,32.255986 C6.031144,33.408816 5.093354,34.346676 3.940454,34.346676 C3.343144,34.346676 2.792104,34.101746 2.390374,33.658226 C1.988644,33.214706 1.800484,32.642736 1.860264,32.048436 L3.014634,20.500466 L4.318314,19.195316 C4.472104,19.041596 4.548264,18.826486 4.531884,18.609976 C4.515434,18.393396 4.403434,18.191796 4.228714,18.061946 C4.201834,18.042486 1.551144,16.007026 1.551144,9.706676 C1.551144,5.093746 4.446694,2.823926 6.031144,1.927926 L6.031144,32.255986 Z M7.210854,0.135856 C7.013734,-0.004494 6.759844,-0.037394 6.531364,0.041776 C6.467174,0.064176 0.060774,2.417646 0.060774,9.705136 C0.060774,14.951216 1.766184,17.600366 2.727844,18.675566 L1.772134,19.631276 C1.649704,19.753706 1.573544,19.913586 1.557094,20.085226 L0.375844,31.898986 C0.272804,32.903976 0.604324,33.910506 1.282274,34.660206 C1.960224,35.409836 2.929444,35.839846 3.940384,35.839846 C5.917534,35.839846 7.525854,34.231596 7.52739403,32.254446 L7.52739403,0.745136 C7.52739403,0.503216 7.409514,0.276206 7.210854,0.135856 L7.210854,0.135856 Z" id="Fill-4" fill="#319647" mask="url(#mask-4)"></path>
                        </g>
                    </g>
                    <rect id="Rectangle-Copy-8" x="0" y="0" width="46" height="46"></rect>
                </g>
            </g>
        </g>
    </g>
</svg>