<?xml version="1.0" encoding="UTF-8"?>
<svg width="46px" height="46px" viewBox="0 0 46 46" version="1.1" xmlns="http://www.w3.org/2000/svg" xmlns:xlink="http://www.w3.org/1999/xlink">
    <title>80EE1945-8319-4FB8-970D-8D38E66FFF23</title>
    <defs>
        <polygon id="path-1" points="1.4e-05 0.046627 35.84007 0.046627 35.84007 1.540007 1.4e-05 1.540007"></polygon>
        <polygon id="path-3" points="0.0315717045 0.047705 2.98514998 0.047705 2.98514998 10.5 0.0315717045 10.5"></polygon>
        <polygon id="path-5" points="0.0295207045 0.047705 2.98309898 0.047705 2.98309898 10.5 0.0295207045 10.5"></polygon>
        <polygon id="path-7" points="0.0289747045 0.047705 2.98255298 0.047705 2.98255298 10.5 0.0289747045 10.5"></polygon>
    </defs>
    <g id="Web" stroke="none" stroke-width="1" fill="none" fill-rule="evenodd">
        <g id="Domaćinstvo" transform="translate(-223.000000, -1126.000000)">
            <g id="Group-30" transform="translate(223.000000, 1126.000000)">
                <g id="icon-air-c">
                    <g id="Group-31" transform="translate(5.000000, 8.000000)">
                        <path d="M34.346704,14.186634 C34.346704,15.421644 33.341714,16.426634 32.106704,16.426634 L3.733324,16.426634 C2.498314,16.426634 1.493324,15.421644 1.493324,14.186634 L1.493324,3.733324 C1.493324,2.498314 2.498314,1.493324 3.733324,1.493324 L32.106634,1.493324 C33.341644,1.493324 34.346704,2.498314 34.346704,3.733324 L34.346704,14.186634 L34.346704,14.186634 Z M32.106704,1.4e-05 L3.733324,1.4e-05 C1.675534,1.4e-05 1.4e-05,1.675534 1.4e-05,3.733324 L1.4e-05,14.186634 C1.4e-05,16.244354 1.675534,17.919944 3.733324,17.919944 L32.106634,17.919944 C34.164424,17.919944 35.839944,16.244354 35.839944,14.186634 L35.839944,3.733324 C35.839944,1.675534 34.164494,1.4e-05 32.106704,1.4e-05 L32.106704,1.4e-05 Z" id="Fill-1" fill="#000000"></path>
                        <g id="Group-5" transform="translate(0.000000, 10.406690)">
                            <mask id="mask-2" fill="white">
                                <use xlink:href="#path-1"></use>
                            </mask>
                            <g id="Clip-4"></g>
                            <path d="M35.093324,0.046627 L0.746704,0.046627 C0.334544,0.046627 1.4e-05,0.381157 1.4e-05,0.793317 C1.4e-05,1.205477 0.334544,1.540007 0.746704,1.540007 L35.093394,1.540007 C35.505554,1.540007 35.840084,1.205477 35.840084,0.793317 C35.840084,0.381157 35.505484,0.046627 35.093324,0.046627" id="Fill-3" fill="#000000" mask="url(#mask-2)"></path>
                        </g>
                        <g id="Group-8" transform="translate(10.500000, 19.366690)">
                            <mask id="mask-4" fill="white">
                                <use xlink:href="#path-3"></use>
                            </mask>
                            <g id="Clip-7"></g>
                            <path d="M2.196334,4.919425 C1.530284,3.240895 1.165934,2.168635 2.012654,1.321915 C2.303854,1.030715 2.303854,0.557375 2.012654,0.266105 C1.721454,-0.025095 1.248044,-0.025095 0.956844,0.266105 C-0.627606,1.850555 0.168364,3.857595 0.807534,5.470395 C1.495984,7.204225 1.870764,8.312255 0.956844,9.226105 C0.665644,9.517375 0.665644,9.990715 0.956844,10.281915 C1.103214,10.426815 1.294314,10.500035 1.485484,10.500035 C1.676654,10.500035 1.867754,10.426885 2.012654,10.281915 C3.665774,8.627325 2.850414,6.571005 2.196334,4.919425" id="Fill-6" fill="#000000" mask="url(#mask-4)"></path>
                        </g>
                        <g id="Group-11" transform="translate(16.450000, 19.366690)">
                            <mask id="mask-6" fill="white">
                                <use xlink:href="#path-5"></use>
                            </mask>
                            <g id="Clip-10"></g>
                            <path d="M2.194283,4.919425 C1.528233,3.240895 1.163883,2.168635 2.010603,1.321915 C2.301803,1.030715 2.301803,0.557375 2.010603,0.266105 C1.719403,-0.025095 1.245993,-0.025095 0.954793,0.266105 C-0.629657,1.850555 0.166313,3.857595 0.805483,5.470395 C1.493933,7.204225 1.868713,8.312255 0.954793,9.226105 C0.663593,9.517375 0.663593,9.990715 0.954793,10.281915 C1.101163,10.426815 1.292263,10.500035 1.483433,10.500035 C1.674603,10.500035 1.865703,10.426885 2.010603,10.281915 C3.663723,8.627325 2.848363,6.571005 2.194283,4.919425" id="Fill-9" fill="#000000" mask="url(#mask-6)"></path>
                        </g>
                        <g id="Group-14" transform="translate(22.400000, 19.366690)">
                            <mask id="mask-8" fill="white">
                                <use xlink:href="#path-7"></use>
                            </mask>
                            <g id="Clip-13"></g>
                            <path d="M2.193737,4.919425 C1.527687,3.240895 1.163337,2.168635 2.010057,1.321915 C2.301257,1.030715 2.301257,0.557375 2.010057,0.266105 C1.718857,-0.025095 1.245447,-0.025095 0.954247,0.266105 C-0.630203,1.850555 0.165767,3.857595 0.804937,5.470395 C1.493387,7.204225 1.868167,8.312255 0.954247,9.226105 C0.663047,9.517375 0.663047,9.990715 0.954247,10.281915 C1.100617,10.426815 1.291717,10.500035 1.482887,10.500035 C1.674057,10.500035 1.865157,10.426885 2.010057,10.281915 C3.663177,8.627325 2.847817,6.571005 2.193737,4.919425" id="Fill-12" fill="#000000" mask="url(#mask-8)"></path>
                        </g>
                        <path d="M32.106704,13.440007 L3.733324,13.440007 C3.321164,13.440007 2.986634,13.774537 2.986634,14.186697 C2.986634,14.598857 3.321164,14.933317 3.733324,14.933317 L32.106634,14.933317 C32.518794,14.933317 32.853324,14.598787 32.853324,14.186627 C32.853324,13.774467 32.518864,13.440007 32.106704,13.440007" id="Fill-15" fill="#319647"></path>
                        <path d="M5.226704,2.986627 C4.814544,2.986627 4.480014,3.321157 4.480014,3.733317 L4.480014,8.213317 C4.480014,8.625477 4.814544,8.960007 5.226704,8.960007 C5.638864,8.960007 5.973324,8.625477 5.973324,8.213317 L5.973324,3.733317 C5.973324,3.321157 5.638864,2.986627 5.226704,2.986627" id="Fill-17" fill="#319647"></path>
                        <path d="M9.706704,2.986627 C9.294544,2.986627 8.960014,3.321157 8.960014,3.733317 L8.960014,8.213317 C8.960014,8.625477 9.294544,8.960007 9.706704,8.960007 C10.118864,8.960007 10.453394,8.625477 10.453394,8.213317 L10.453394,3.733317 C10.453324,3.321157 10.118864,2.986627 9.706704,2.986627" id="Fill-19" fill="#319647"></path>
                        <path d="M14.186704,2.986627 C13.774544,2.986627 13.440014,3.321157 13.440014,3.733317 L13.440014,8.213317 C13.440014,8.625477 13.774544,8.960007 14.186704,8.960007 C14.598864,8.960007 14.933394,8.625477 14.933394,8.213317 L14.933394,3.733317 C14.933324,3.321157 14.598864,2.986627 14.186704,2.986627" id="Fill-21" fill="#319647"></path>
                        <path d="M18.666704,2.986627 C18.254544,2.986627 17.920014,3.321157 17.920014,3.733317 L17.920014,8.213317 C17.920014,8.625477 18.254544,8.960007 18.666704,8.960007 C19.078864,8.960007 19.413394,8.625477 19.413394,8.213317 L19.413394,3.733317 C19.413324,3.321157 19.078864,2.986627 18.666704,2.986627" id="Fill-23" fill="#319647"></path>
                        <path d="M23.146704,2.986627 C22.734544,2.986627 22.400014,3.321157 22.400014,3.733317 L22.400014,8.213317 C22.400014,8.625477 22.734544,8.960007 23.146704,8.960007 C23.558864,8.960007 23.893394,8.625477 23.893394,8.213317 L23.893394,3.733317 C23.893324,3.321157 23.558864,2.986627 23.146704,2.986627" id="Fill-25" fill="#319647"></path>
                        <path d="M27.626704,2.986627 C27.214544,2.986627 26.880014,3.321157 26.880014,3.733317 L26.880014,8.213317 C26.880014,8.625477 27.214544,8.960007 27.626704,8.960007 C28.038864,8.960007 28.373394,8.625477 28.373394,8.213317 L28.373394,3.733317 C28.373324,3.321157 28.038864,2.986627 27.626704,2.986627" id="Fill-27" fill="#319647"></path>
                        <path d="M32.106704,7.466627 C32.519074,7.466627 32.853394,7.800877 32.853394,8.213317 C32.853394,8.625687 32.519074,8.960007 32.106704,8.960007 C31.694264,8.960007 31.360014,8.625687 31.360014,8.213317 C31.360014,7.800877 31.694264,7.466627 32.106704,7.466627" id="Fill-29" fill="#319647"></path>
                    </g>
                    <rect id="Rectangle-Copy-7" x="0" y="0" width="46" height="46"></rect>
                </g>
            </g>
        </g>
    </g>
</svg>