<?xml version="1.0" encoding="UTF-8"?>
<svg width="46px" height="46px" viewBox="0 0 46 46" version="1.1" xmlns="http://www.w3.org/2000/svg" xmlns:xlink="http://www.w3.org/1999/xlink">
    <title>7AEF563D-5B16-43E7-B54A-B6E59075F314</title>
    <defs>
        <polygon id="path-1" points="0 -8.4e-05 35.839909 -8.4e-05 35.839909 23.893226 0 23.893226"></polygon>
        <polygon id="path-3" points="0 35.83895 35.83993 35.83895 35.83993 0 0 0"></polygon>
    </defs>
    <g id="Web" stroke="none" stroke-width="1" fill="none" fill-rule="evenodd">
        <g id="Domaćinstvo" transform="translate(-223.000000, -1196.000000)">
            <g id="Group-29" transform="translate(223.000000, 1196.000000)">
                <g id="icon-tv">
                    <g id="Group-19" transform="translate(5.000000, 5.000000)">
                        <g id="Group-3" transform="translate(0.000000, 8.958950)">
                            <mask id="mask-2" fill="white">
                                <use xlink:href="#path-1"></use>
                            </mask>
                            <g id="Clip-2"></g>
                            <path d="M34.346669,20.159916 C34.346669,21.394996 33.341679,22.399916 32.106669,22.399916 L3.733289,22.399916 C2.498279,22.399916 1.493289,21.394996 1.493289,20.159916 L1.493289,3.733226 C1.493289,2.498216 2.498279,1.493226 3.733289,1.493226 L32.106599,1.493226 C33.341609,1.493226 34.346669,2.498216 34.346669,3.733226 L34.346669,20.159916 L34.346669,20.159916 Z M32.106669,-8.4e-05 L3.733289,-8.4e-05 C1.674029,-8.4e-05 -2.1e-05,1.675506 -2.1e-05,3.733226 L-2.1e-05,20.159916 C-2.1e-05,22.217706 1.674029,23.893226 3.733289,23.893226 L32.106599,23.893226 C34.165929,23.893226 35.839909,22.217706 35.839909,20.159916 L35.839909,3.733226 C35.839909,1.675506 34.165929,-8.4e-05 32.106669,-8.4e-05 L32.106669,-8.4e-05 Z" id="Fill-1" fill="#000000" mask="url(#mask-2)"></path>
                        </g>
                        <path d="M22.399986,24.638866 C22.399986,26.696656 20.725936,28.372176 18.666676,28.372176 L8.213296,28.372176 C6.154036,28.372176 4.479986,26.696656 4.479986,24.638866 L4.479986,17.172176 C4.479986,15.114456 6.154036,13.438866 8.213296,13.438866 L18.666606,13.438866 C20.725936,13.438866 22.399986,15.114456 22.399986,17.172176 L22.399986,24.638866 L22.399986,24.638866 Z M18.666676,11.945556 L8.213296,11.945556 C5.331186,11.945556 2.986606,14.290066 2.986606,17.172246 L2.986606,24.638936 C2.986606,27.521046 5.331116,29.865626 8.213296,29.865626 L18.666606,29.865626 C21.548716,29.865626 23.893296,27.521116 23.893296,24.638936 L23.893296,17.172176 C23.893296,14.290066 21.548786,11.945556 18.666676,11.945556 L18.666676,11.945556 Z" id="Fill-4" fill="#000000"></path>
                        <path d="M30.613296,13.438859 L27.626606,13.438859 C27.214446,13.438859 26.879916,13.773389 26.879916,14.185549 C26.879916,14.597779 27.214446,14.932239 27.626606,14.932239 L30.613296,14.932239 C31.025456,14.932239 31.359986,14.597779 31.359986,14.185549 C31.359986,13.773389 31.025456,13.438859 30.613296,13.438859" id="Fill-6" fill="#319647"></path>
                        <path d="M30.613296,16.425549 L27.626606,16.425549 C27.214446,16.425549 26.879916,16.760079 26.879916,17.172239 C26.879916,17.584469 27.214446,17.918929 27.626606,17.918929 L30.613296,17.918929 C31.025456,17.918929 31.359986,17.584469 31.359986,17.172239 C31.359986,16.760079 31.025456,16.425549 30.613296,16.425549" id="Fill-8" fill="#319647"></path>
                        <path d="M30.613296,19.412176 L27.626606,19.412176 C27.214446,19.412176 26.879916,19.746706 26.879916,20.158866 C26.879916,20.571096 27.214446,20.905556 27.626606,20.905556 L30.613296,20.905556 C31.025456,20.905556 31.359986,20.571096 31.359986,20.158866 C31.359986,19.746706 31.025456,19.412176 30.613296,19.412176" id="Fill-10" fill="#319647"></path>
                        <mask id="mask-4" fill="white">
                            <use xlink:href="#path-3"></use>
                        </mask>
                        <g id="Clip-13"></g>
                        <path d="M28.37338,28.37219 L29.86669,28.37219 L29.86669,23.89219 L28.37338,23.89219 L28.37338,28.37219 Z M30.61331,22.39888 L27.62662,22.39888 C27.21446,22.39888 26.87993,22.73341 26.87993,23.14557 L26.87993,29.11888 C26.87993,29.53104 27.21446,29.86557 27.62662,29.86557 L30.61331,29.86557 C31.02547,29.86557 31.36,29.53104 31.36,29.11888 L31.36,23.14557 C31.36,22.73341 31.02547,22.39888 30.61331,22.39888 L30.61331,22.39888 Z" id="Fill-12" fill="#000000" mask="url(#mask-4)"></path>
                        <path d="M5.226711,31.358866 C4.814551,31.358866 4.480021,31.693396 4.480021,32.105556 L4.480021,35.092246 C4.480021,35.504476 4.814551,35.838936 5.226711,35.838936 C5.638871,35.838936 5.973401,35.504476 5.973401,35.092246 L5.973401,32.105556 C5.973331,31.693396 5.638871,31.358866 5.226711,31.358866" id="Fill-14" fill="#000000" mask="url(#mask-4)"></path>
                        <path d="M30.613296,31.358866 C30.201136,31.358866 29.866606,31.693396 29.866606,32.105556 L29.866606,35.092246 C29.866606,35.504476 30.201136,35.838936 30.613296,35.838936 C31.025456,35.838936 31.359986,35.504476 31.359986,35.092246 L31.359986,32.105556 C31.359986,31.693396 31.025456,31.358866 30.613296,31.358866" id="Fill-15" fill="#000000" mask="url(#mask-4)"></path>
                        <path d="M25.16717,0.218435 C24.87597,-0.072765 24.40256,-0.072765 24.11136,0.218435 L15.68,8.649725 L7.24717,0.218435 C6.95597,-0.072765 6.48256,-0.072765 6.19136,0.218435 C5.90016,0.509565 5.90016,0.983045 6.19136,1.274245 L15.15136,10.234245 C15.29773,10.379005 15.48883,10.452225 15.68,10.452225 C15.87117,10.452225 16.06227,10.379075 16.20717,10.234245 L25.16717,1.274245 C25.45837,0.983045 25.45837,0.509565 25.16717,0.218435" id="Fill-16" fill="#000000" mask="url(#mask-4)"></path>
                        <path d="M16.607346,24.072916 C14.915376,25.764886 11.964596,25.764886 10.272626,24.072916 C8.525426,22.325716 8.525426,19.483926 10.272626,17.736726 C11.117876,16.891476 12.242356,16.425556 13.439986,16.425556 C14.637616,16.425556 15.762096,16.891476 16.607346,17.736726 C18.354546,19.483856 18.354546,22.325716 16.607346,24.072916 M17.663156,16.682386 C15.408246,14.426006 11.471796,14.426006 9.216886,16.682386 C6.887286,19.010586 6.887286,22.800596 9.216886,25.130196 C10.344376,26.257686 11.845176,26.878866 13.440056,26.878866 C15.034936,26.878866 16.535736,26.257616 17.663226,25.130196 C19.992756,22.802136 19.992756,19.011986 17.663156,16.682386" id="Fill-17" fill="#319647" mask="url(#mask-4)"></path>
                        <path d="M17.661616,16.682379 C17.370416,16.391179 16.897006,16.391179 16.605806,16.682379 L9.215276,24.074449 C8.924076,24.365649 8.924076,24.838989 9.215276,25.130259 C9.361646,25.275019 9.552746,25.348239 9.743916,25.348239 C9.935086,25.348239 10.126186,25.275089 10.271086,25.130259 L17.661616,17.738189 C17.952816,17.446989 17.952816,16.973579 17.661616,16.682379" id="Fill-18" fill="#319647" mask="url(#mask-4)"></path>
                    </g>
                    <rect id="Rectangle-Copy-6" x="0" y="0" width="46" height="46"></rect>
                </g>
            </g>
        </g>
    </g>
</svg>