<?xml version="1.0" encoding="UTF-8"?>
<svg width="46px" height="46px" viewBox="0 0 46 46" version="1.1" xmlns="http://www.w3.org/2000/svg" xmlns:xlink="http://www.w3.org/1999/xlink">
    <title>9B352CDB-56F4-483B-882E-84EA67703C1C</title>
    <defs>
        <polygon id="path-1" points="0 0.04095 30.9762416 0.04095 30.9762416 9.09796892 0 9.09796892"></polygon>
    </defs>
    <g id="Web" stroke="none" stroke-width="1" fill="none" fill-rule="evenodd">
        <g id="Domaćinstvo" transform="translate(-570.000000, -1126.000000)">
            <g id="Group-35" transform="translate(570.000000, 1126.000000)">
                <g id="icon-wifi">
                    <g id="Group-10" transform="translate(8.000000, 12.000000)">
                        <g id="Group-3" transform="translate(0.000000, 0.029050)">
                            <mask id="mask-2" fill="white">
                                <use xlink:href="#path-1"></use>
                            </mask>
                            <g id="Clip-2"></g>
                            <path d="M30.59392,8.884778 C30.15978,9.225328 29.5316,9.149728 29.19091,8.715588 C22.2075,-0.182952 8.7731,-0.187432 1.78535,8.715588 C1.44473,9.149518 0.81683,9.225608 0.38234,8.884778 C-0.05173,8.544018 -0.12754,7.915838 0.21322,7.481768 C8.00156,-2.441642 22.97869,-2.437022 30.76304,7.481768 C31.10373,7.915838 31.02799,8.544088 30.59392,8.884778" id="Fill-1" fill="#000000" mask="url(#mask-2)"></path>
                        </g>
                        <path d="M26.622036,10.408643 C26.970776,10.836343 26.906936,11.465783 26.479306,11.814593 C26.051746,12.163403 25.422236,12.099563 25.073426,11.671863 C20.093066,5.566393 10.761016,5.614483 5.838826,11.751243 C5.493796,12.181323 4.865056,12.251043 4.434066,11.905523 C4.003566,11.560213 3.934546,10.931263 4.279786,10.500833 C10.015376,3.349913 20.836886,3.317293 26.622036,10.408643" id="Fill-4" fill="#000000"></path>
                        <path d="M21.860461,13.096671 C22.250641,13.486851 22.250641,14.119511 21.860461,14.509761 C21.470351,14.899941 20.837691,14.900081 20.447371,14.509761 C17.706521,11.768911 13.270201,11.768561 10.529071,14.509761 C10.138821,14.899941 9.506231,14.899941 9.116051,14.509761 C8.725731,14.119511 8.725731,13.486851 9.116051,13.096671 C12.637611,9.574831 18.338131,9.574411 21.860461,13.096671" id="Fill-6" fill="#000000"></path>
                        <path d="M15.448013,20.095649 C15.035853,20.095649 14.701323,19.761189 14.701323,19.348959 C14.701323,18.936799 15.035853,18.602339 15.448013,18.602339 C15.860243,18.602339 16.194703,18.936869 16.194703,19.349029 C16.194703,19.761259 15.860243,20.095649 15.448013,20.095649 M15.448013,17.109029 C14.213003,17.109029 13.208013,18.114019 13.208013,19.349029 C13.208013,20.584109 14.213003,21.589029 15.448013,21.589029 C16.683093,21.589029 17.688013,20.584109 17.688013,19.349029 C17.688013,18.114019 16.683093,17.109029 15.448013,17.109029" id="Fill-8" fill="#319647"></path>
                    </g>
                    <rect id="Rectangle-Copy-12" x="0" y="0" width="46" height="46"></rect>
                </g>
            </g>
        </g>
    </g>
</svg>