<?xml version="1.0" encoding="UTF-8"?>
<svg width="46px" height="46px" viewBox="0 0 46 46" version="1.1" xmlns="http://www.w3.org/2000/svg" xmlns:xlink="http://www.w3.org/1999/xlink">
    <title>7FA44B8E-3F02-4216-9B22-D943A794DD31</title>
    <defs>
        <polygon id="path-1" points="6.8861615e-06 0 43.96 0 43.96 22.62918 6.8861615e-06 22.62918"></polygon>
    </defs>
    <g id="Web" stroke="none" stroke-width="1" fill="none" fill-rule="evenodd">
        <g id="Domaćinstvo" transform="translate(-223.000000, -1266.000000)">
            <g id="Group-26" transform="translate(223.000000, 1266.000000)">
                <g id="icon-gym">
                    <g id="Group-6" transform="translate(1.000000, 11.000000)">
                        <mask id="mask-2" fill="white">
                            <use xlink:href="#path-1"></use>
                        </mask>
                        <g id="Clip-2"></g>
                        <path d="M40.73545,12.8912 L42.66157,12.8912 L42.66157,9.73791 L40.73545,9.73791 L40.73545,12.8912 Z M39.43716,17.30575 C39.43611,18.17606 38.73079,18.88138 37.86055,18.88236 L36.28387,18.88236 L36.28387,3.74682 L37.86055,3.74682 C38.73079,3.7478 39.43611,4.45312 39.43716,5.32343 L39.43716,17.30575 Z M34.98544,19.75414 C34.98446,20.62445 34.27914,21.32977 33.4089,21.33082 L31.83222,21.33082 L31.83222,13.54745 L31.83222,13.54038 L31.83222,13.53331 L31.83222,9.0958 L31.83222,9.0888 L31.83222,9.08173 L31.83222,1.29836 L33.4089,1.29836 C34.27914,1.29941 34.98446,2.00466 34.98544,2.87504 L34.98544,19.75414 Z M43.31159,8.43955 L43.31082,8.43955 L40.73552,8.43955 L40.73552,5.32343 C40.73363,3.73632 39.44752,2.45021 37.86055,2.44839 L36.24824,2.44839 C36.03656,1.04286 34.83018,0.00266 33.4089,-1.13865928e-07 L31.18304,-1.13865928e-07 C30.82471,-1.13865928e-07 30.534,0.29008 30.5337899,0.64841 L30.5337899,0.64918 L30.5337899,6.99769 L30.5337899,8.43955 L30.5337899,9.73798 L30.5337899,12.8912 L30.5337899,14.18956 L30.5337899,16.4703 L30.5337899,21.97993 C30.53365,22.33826 30.82394,22.62918 31.18227,22.62918 L31.18304,22.62918 L33.4089,22.62918 C34.83018,22.62652 36.03656,21.58625 36.24824,20.18079 L37.86055,20.18079 C39.44752,20.17897 40.73363,18.89286 40.73552,17.30575 L40.73552,14.18956 L43.31082,14.18956 C43.66915,14.18977 43.95979,13.89948 43.9600001,13.54115 L43.9600001,13.54038 L43.9600001,9.08873 C43.96021,8.73047 43.66992,8.43976 43.31159,8.43955 L43.31159,8.43955 Z" id="Fill-1" fill="#000000" mask="url(#mask-2)"></path>
                        <path d="M12.127787,9.081702 L12.127787,9.088772 L12.127787,9.095842 L12.127787,13.533352 L12.127787,13.540352 L12.127787,13.547492 L12.127787,21.330792 L10.551177,21.330792 C9.680797,21.329812 8.975547,20.624422 8.974497,19.754182 L8.974497,2.875012 C8.975547,2.004702 9.680797,1.299382 10.551177,1.298402 L12.127787,1.298402 L12.127787,9.081702 Z M7.676067,18.882402 L6.099527,18.882402 C5.229287,18.881352 4.524107,18.176312 4.522847,17.306142 L4.522847,17.305722 L4.522847,5.323402 C4.523897,4.453092 5.229147,3.747772 6.099527,3.746792 L7.676067,3.746792 L7.676067,18.882402 Z M1.298437,12.891242 L3.224487,12.891242 L3.224487,9.737952 L1.298437,9.737952 L1.298437,12.891242 Z M13.4261471,12.891242 L13.4261471,9.737952 L13.4261471,8.439592 L13.4261471,6.997732 L13.4261471,0.649222 C13.426357,0.290892 13.135997,-2.8e-05 12.777667,-2.8e-05 L12.776967,-2.8e-05 L10.551177,-2.8e-05 C9.129827,0.002632 7.923377,1.042902 7.711697,2.448362 L6.099527,2.448362 C4.512417,2.450252 3.226307,3.736362 3.224487,5.323402 L3.224487,8.439592 L0.649257,8.439592 C0.290857,8.439382 0.000217,8.729672 6.88616138e-06,9.088002 L6.88616138e-06,9.088772 L6.88616138e-06,13.540352 C-0.000203,13.898682 0.290157,14.189392 0.648487,14.189602 L0.649257,14.189602 L3.224487,14.189602 L3.224487,17.305722 C3.226307,18.892832 4.512417,20.178942 6.099527,20.180832 L7.711697,20.180832 C7.923377,21.586292 9.129827,22.626492 10.551177,22.6291521 L12.776967,22.6291521 C13.135367,22.6291521 13.425937,22.339072 13.4261471,21.980672 L13.4261471,21.979972 L13.4261471,16.470342 L13.4261471,14.189602 L13.4261471,12.891242 Z" id="Fill-3" fill="#000000" mask="url(#mask-2)"></path>
                        <polygon id="Fill-4" fill="#319647" mask="url(#mask-2)" points="13.42614 14.18956 30.53379 14.18956 30.53379 12.8912 13.42614 12.8912"></polygon>
                        <polygon id="Fill-5" fill="#319647" mask="url(#mask-2)" points="13.42614 9.73798 30.53379 9.73798 30.53379 8.43962 13.42614 8.43962"></polygon>
                    </g>
                    <rect id="Rectangle-Copy-5" x="0" y="0" width="46" height="46"></rect>
                </g>
            </g>
        </g>
    </g>
</svg>