<?xml version="1.0" encoding="UTF-8"?>
<svg width="36px" height="36px" viewBox="0 0 36 36" version="1.1" xmlns="http://www.w3.org/2000/svg" xmlns:xlink="http://www.w3.org/1999/xlink">
    <title>FF2C2516-C9E5-4410-8570-988EF6B9733F</title>
    <defs>
        <polygon id="path-1" points="0.047824 0.06279 7.514794 0.06279 7.514794 19.343233 0.047824 19.343233"></polygon>
        <polygon id="path-3" points="0 -7e-05 35.839986 -7e-05 35.839986 4.47993 0 4.47993"></polygon>
    </defs>
    <g id="Web" stroke="none" stroke-width="1" fill="none" fill-rule="evenodd">
        <g id="Domaćinstvo" transform="translate(-655.000000, -939.000000)">
            <g id="bathroom" transform="translate(630.000000, 923.000000)">
                <g id="bath" transform="translate(25.000000, 16.000000)">
                    <g id="Group-3" transform="translate(25.340000, 0.007210)">
                        <mask id="mask-2" fill="white">
                            <use xlink:href="#path-1"></use>
                        </mask>
                        <g id="Clip-2"></g>
                        <path d="M4.653614,0.062783 C3.892014,0.062783 3.175214,0.359933 2.636144,0.899073 L0.266224,3.268993 C-0.024976,3.560193 -0.024976,4.033603 0.266224,4.324803 C0.557424,4.616003 1.030834,4.616003 1.322034,4.324803 L3.691884,1.956353 C3.947244,1.699523 4.289194,1.557633 4.661034,1.557633 C5.410664,1.557633 6.019944,2.166913 6.019944,2.916543 L6.019944,18.596543 C6.019944,19.008703 6.354474,19.343233 6.766634,19.343233 C7.178794,19.343233 7.513324,19.008703 7.514794,18.595073 L7.514794,2.915073 C7.514794,1.342593 6.236524,0.062783 4.653614,0.062783" id="Fill-1" fill="#319647" mask="url(#mask-2)"></path>
                    </g>
                    <g id="Group-6" transform="translate(0.000000, 17.857210)">
                        <mask id="mask-4" fill="white">
                            <use xlink:href="#path-3"></use>
                        </mask>
                        <g id="Clip-5"></g>
                        <path d="M33.599986,2.98655 L2.239986,2.98655 C1.829296,2.98655 1.493296,2.65202 1.493296,2.23986 C1.493296,1.8277 1.829296,1.49317 2.239986,1.49317 L33.599986,1.49317 C34.010676,1.49317 34.346676,1.8277 34.346676,2.23986 C34.346676,2.65202 34.010676,2.98655 33.599986,2.98655 M33.599986,-7e-05 L2.239986,-7e-05 C1.004976,-7e-05 -1.4e-05,1.00492 -1.4e-05,2.23993 C-1.4e-05,3.47494 1.004976,4.47993 2.239986,4.47993 L33.599986,4.47993 C34.834996,4.47993 35.839986,3.47494 35.839986,2.23993 C35.839986,1.00492 34.834996,-7e-05 33.599986,-7e-05" id="Fill-4" fill="#000000" mask="url(#mask-4)"></path>
                    </g>
                    <path d="M33.806087,20.872194 C33.401417,20.760194 32.995207,20.988674 32.883207,21.385924 L30.825417,28.589764 C30.369927,30.183174 28.893067,31.297154 27.235467,31.297154 L8.606087,31.297154 C6.948487,31.297154 5.473097,30.183104 5.016137,28.589764 L2.958277,21.385854 C2.846277,20.988604 2.438597,20.760124 2.035397,20.872124 C1.638147,20.985594 1.409667,21.397754 1.523207,21.795004 L3.580997,28.998844 C4.218627,31.231354 6.283907,32.790394 8.606087,32.790394 L27.233927,32.790394 C29.556037,32.790394 31.622857,31.231354 32.260487,28.998844 L34.318277,21.795004 C34.431817,21.399294 34.203337,20.985664 33.806087,20.872194" id="Fill-7" fill="#000000"></path>
                    <path d="M8.606087,28.31192 C8.274567,28.31192 7.980357,28.08792 7.887817,27.76984 L6.918667,24.374 C6.806667,23.97829 6.395977,23.7468 5.995787,23.86027 C5.600077,23.97374 5.370057,24.3859 5.483597,24.78315 L6.452747,28.17899 C6.724557,29.13624 7.611597,29.80376 8.606157,29.80376 C9.018317,29.80376 9.352847,29.47077 9.352847,29.05861 C9.352777,28.64645 9.018247,28.31192 8.606087,28.31192" id="Fill-9" fill="#319647"></path>
                    <path d="M10.039687,31.374756 C9.670857,31.194086 9.224327,31.338916 9.037637,31.709286 L7.544327,34.695976 C7.360647,35.064806 7.509957,35.512806 7.878857,35.698026 C7.987847,35.751786 8.101387,35.777196 8.213387,35.777196 C8.486667,35.777196 8.749517,35.626346 8.880907,35.363566 L10.374217,32.376876 C10.557897,32.007906 10.408517,31.559906 10.039687,31.374756" id="Fill-11" fill="#000000"></path>
                    <path d="M28.295673,34.697467 L26.802363,31.710777 C26.617213,31.340407 26.169213,31.192567 25.800313,31.376247 C25.431483,31.561397 25.282103,32.009397 25.465783,32.378297 L26.959093,35.364987 C27.090483,35.626297 27.353333,35.777147 27.626613,35.777147 C27.738613,35.777147 27.852083,35.751737 27.961143,35.699517 C28.330043,35.514297 28.479353,35.066297 28.295673,34.697467" id="Fill-13" fill="#000000"></path>
                    <path d="M25.679353,6.745186 L23.183993,4.175206 L25.129783,3.857126 L26.069113,4.796456 L25.679353,6.745186 Z M27.410103,4.024356 L25.916793,2.531046 C25.745083,2.359336 25.507643,2.280166 25.267193,2.321956 L21.533883,2.934246 C21.259133,2.977576 21.033593,3.171686 20.945533,3.436006 C20.857473,3.700326 20.924603,3.991526 21.118783,4.190116 L25.598783,8.804516 C25.739133,8.952356 25.934783,9.031526 26.133373,9.031526 C26.203583,9.031526 26.275263,9.021096 26.346943,9.001636 C26.612733,8.924006 26.814333,8.704486 26.868093,8.432676 L27.614783,4.699366 C27.663993,4.454436 27.586363,4.200546 27.410103,4.024356 L27.410103,4.024356 Z" id="Fill-15" fill="#000000"></path>
                    <path d="M17.70048,9.116674 C17.40928,8.825474 16.93587,8.825474 16.64467,9.116674 L15.15136,10.609984 C14.86016,10.901184 14.86016,11.374594 15.15136,11.665794 C15.29773,11.810624 15.48883,11.883844 15.68,11.883844 C15.87117,11.883844 16.06227,11.810694 16.20717,11.665794 L17.70048,10.172484 C17.99168,9.881214 17.99168,9.407874 17.70048,9.116674" id="Fill-17" fill="#319647"></path>
                    <path d="M20.68717,12.103294 C20.39597,11.812094 19.92256,11.812094 19.63136,12.103294 L18.13805,13.596604 C17.84685,13.887804 17.84685,14.361214 18.13805,14.652414 C18.28442,14.797244 18.47552,14.870464 18.66669,14.870464 C18.85786,14.870464 19.04896,14.797314 19.19386,14.652414 L20.68717,13.159104 C20.97837,12.867904 20.97837,12.394494 20.68717,12.103294" id="Fill-19" fill="#319647"></path>
                    <path d="M22.18048,7.623294 C21.88928,7.332094 21.41587,7.332094 21.12467,7.623294 L19.63136,9.116604 C19.34016,9.407804 19.34016,9.881214 19.63136,10.172414 C19.77773,10.317244 19.96883,10.390464 20.16,10.390464 C20.35117,10.390464 20.54227,10.317314 20.68717,10.172414 L22.18048,8.679104 C22.47168,8.387904 22.47168,7.914494 22.18048,7.623294" id="Fill-21" fill="#319647"></path>
                </g>
            </g>
        </g>
    </g>
</svg>