<?xml version="1.0" standalone="no"?>
<!DOCTYPE svg PUBLIC "-//W3C//DTD SVG 20010904//EN"
 "http://www.w3.org/TR/2001/REC-SVG-20010904/DTD/svg10.dtd">
<svg version="1.0" xmlns="http://www.w3.org/2000/svg"
 width="700.000000pt" height="700.000000pt" viewBox="0 0 700.000000 700.000000"
 preserveAspectRatio="xMidYMid meet">
<metadata>
Created by potrace 1.11, written by Peter Selinger 2001-2013
</metadata>
<g transform="translate(0.000000,700.000000) scale(0.100000,-0.100000)"
fill="#000000" stroke="none">
<path d="M3325 6981 c-87 -21 -204 -79 -270 -134 -9 -7 -356 -265 -417 -310
-13 -10 -197 -147 -409 -305 -811 -603 -1075 -798 -1124 -834 -27 -20 -77 -57
-110 -82 -33 -25 -181 -136 -330 -246 -148 -110 -277 -206 -285 -213 -8 -7
-41 -31 -72 -53 -122 -88 -192 -167 -245 -281 -63 -136 -62 -122 -63 -940 0
-409 3 -743 7 -744 5 0 15 -2 23 -3 8 -2 40 -6 70 -10 96 -12 124 -16 160 -22
19 -3 44 -8 55 -9 11 -2 67 -11 125 -19 58 -9 114 -17 125 -20 18 -3 67 -11
135 -22 22 -4 324 -58 390 -71 14 -2 122 -25 240 -49 118 -25 226 -48 239 -50
43 -9 274 -64 334 -80 32 -8 67 -17 78 -19 11 -2 63 -16 117 -31 338 -93 561
-166 776 -251 150 -59 336 -148 336 -161 0 -4 -47 -27 -103 -51 -192 -84 -556
-261 -745 -363 l-74 -39 -35 16 c-20 10 -86 37 -147 62 -471 188 -1109 383
-1711 523 -49 11 -108 25 -130 30 -22 6 -91 21 -152 34 l-113 24 0 -182 0
-182 83 -18 c183 -39 426 -102 642 -165 236 -69 283 -84 501 -157 215 -72 508
-180 617 -228 l49 -21 -84 -50 c-147 -87 -430 -266 -549 -346 -64 -44 -119
-79 -123 -79 -3 0 -29 11 -58 24 -172 78 -656 258 -903 336 -72 23 -140 45
-153 51 l-23 9 2 -308 c1 -364 8 -415 68 -534 78 -152 206 -266 365 -324 112
-41 201 -47 237 -16 204 173 370 303 582 458 78 56 154 112 168 123 32 25 463
313 534 357 28 17 97 60 155 96 58 36 123 76 146 89 104 61 432 246 454 257
14 7 41 22 60 33 47 29 471 243 595 301 201 94 253 117 430 192 99 42 188 81
197 86 10 6 23 10 29 10 6 0 26 7 45 15 19 8 49 22 67 30 l33 14 -1 403 c-1
222 -3 406 -4 409 0 4 -12 10 -25 13 -39 10 -123 111 -165 200 -60 124 -96
252 -126 446 -23 153 -23 472 1 630 10 68 35 195 46 228 5 18 11 39 12 45 2 7
5 19 8 27 3 8 14 38 23 65 42 120 128 241 196 275 41 21 102 26 142 11 70 -27
156 -139 206 -271 29 -75 65 -196 75 -250 2 -14 7 -41 11 -60 37 -200 38 -556
1 -765 -20 -110 -52 -234 -76 -289 -10 -25 -18 -46 -15 -46 2 0 -11 -28 -30
-62 -42 -81 -100 -149 -150 -180 l-40 -25 0 -381 c0 -209 3 -383 5 -385 3 -3
49 13 104 34 190 74 666 227 916 294 74 20 142 40 150 44 13 7 15 56 16 347
l0 339 -41 42 c-105 105 -158 313 -150 593 7 274 71 475 173 542 116 77 241
-102 281 -402 9 -66 7 -326 -4 -390 -12 -78 -47 -195 -75 -250 -29 -57 -80
-120 -98 -120 -4 0 -7 -152 -7 -337 0 -212 4 -337 10 -337 6 1 62 14 125 29
63 15 122 28 130 30 8 2 58 13 110 24 52 11 106 22 120 25 215 40 364 66 400
71 25 3 52 8 60 10 8 2 40 7 70 10 30 3 62 8 70 10 8 2 44 7 80 10 36 4 73 9
84 11 10 2 51 6 90 10 39 4 73 10 76 15 11 17 3 1513 -8 1561 -30 123 -97 245
-176 323 -41 41 -400 311 -1226 922 -91 67 -169 126 -175 131 -5 4 -53 40
-105 78 -195 145 -506 376 -530 394 -14 11 -72 54 -130 97 -815 606 -797 593
-896 631 -67 27 -101 33 -214 37 -67 2 -116 -2 -165 -14z m-1130 -1935 c11 -3
37 -10 58 -15 106 -26 225 -114 296 -220 111 -164 142 -389 84 -601 -43 -154
-159 -299 -294 -363 -116 -56 -284 -76 -438 -53 -200 30 -374 178 -450 382
-31 82 -36 116 -36 254 1 101 5 139 23 198 71 229 241 386 455 417 23 4 44 8
46 10 5 6 233 -2 256 -9z"/>
<path d="M6880 1914 c-51 -14 -255 -62 -285 -68 -16 -3 -140 -36 -360 -96
-304 -82 -965 -303 -1122 -375 -17 -8 -36 -15 -42 -15 -6 0 -19 -4 -29 -9 -9
-5 -28 -13 -42 -19 -14 -5 -46 -19 -72 -31 -26 -12 -50 -21 -53 -21 -2 0 -28
-11 -57 -24 -29 -13 -96 -42 -148 -64 -52 -22 -118 -52 -146 -66 -29 -14 -55
-26 -59 -26 -16 0 -550 -273 -678 -346 -32 -19 -60 -34 -62 -34 -6 0 -307
-182 -430 -260 -185 -117 -584 -397 -585 -410 0 -3 166 -5 368 -5 l368 1 149
99 c83 55 157 105 167 110 9 6 48 29 85 53 37 24 77 48 88 55 11 7 39 24 63
39 60 39 459 266 572 326 254 135 573 288 850 408 107 47 204 89 215 94 200
93 868 326 1240 432 l80 23 -1 110 c-1 61 -2 115 -3 121 -1 14 -15 13 -71 -2z"/>
<path d="M6790 856 c-371 -161 -659 -304 -1070 -533 -47 -27 -317 -189 -386
-232 -22 -14 -41 -30 -42 -36 -3 -16 1037 -14 1128 3 143 26 261 91 361 200
91 98 153 224 166 340 11 91 9 315 -2 318 -5 2 -75 -25 -155 -60z"/>
</g>
</svg>
