<?xml version="1.0" encoding="UTF-8"?>
<svg width="58px" height="18px" viewBox="0 0 58 18" version="1.1" xmlns="http://www.w3.org/2000/svg" xmlns:xlink="http://www.w3.org/1999/xlink">
    <title>09FE6C86-7CB8-4058-BCAA-ADB54896193C</title>
    <g id="Web" stroke="none" stroke-width="1" fill="none" fill-rule="evenodd">
        <g id="Domaćinstvo" transform="translate(-1111.000000, -674.000000)" fill="#FFFFFF" fill-rule="nonzero">
            <g id="Group-2" transform="translate(984.000000, 665.000000)">
                <g id="Group" transform="translate(127.000000, 9.000000)">
                    <path d="M30.546,4.518 C30.546,5.166 30.024,5.688 29.376,5.688 C28.728,5.688 28.206,5.166 28.206,4.518 C28.206,3.87 28.71,3.348 29.376,3.348 C30.042,3.366 30.546,3.888 30.546,4.518 Z M25.722,6.876 C25.722,6.984 25.722,7.164 25.722,7.164 C25.722,7.164 25.164,6.444 23.976,6.444 C22.014,6.444 20.484,7.938 20.484,10.008 C20.484,12.06 21.996,13.572 23.976,13.572 C25.182,13.572 25.722,12.834 25.722,12.834 L25.722,13.14 C25.722,13.284 25.83,13.392 25.974,13.392 L27.432,13.392 L27.432,6.624 C27.432,6.624 26.1,6.624 25.974,6.624 C25.83,6.624 25.722,6.75 25.722,6.876 Z M25.722,11.214 C25.452,11.61 24.912,11.952 24.264,11.952 C23.112,11.952 22.23,11.232 22.23,10.008 C22.23,8.784 23.112,8.064 24.264,8.064 C24.894,8.064 25.47,8.424 25.722,8.802 L25.722,11.214 Z M28.512,6.624 L30.24,6.624 L30.24,13.392 L28.512,13.392 L28.512,6.624 Z M54.324,6.444 C53.136,6.444 52.578,7.164 52.578,7.164 L52.578,3.366 L50.85,3.366 L50.85,13.392 C50.85,13.392 52.182,13.392 52.308,13.392 C52.452,13.392 52.56,13.266 52.56,13.14 L52.56,12.834 L52.56,12.834 C52.56,12.834 53.118,13.572 54.306,13.572 C56.268,13.572 57.798,12.06 57.798,10.008 C57.798,7.956 56.268,6.444 54.324,6.444 Z M54.036,11.934 C53.37,11.934 52.848,11.592 52.578,11.196 L52.578,8.784 C52.848,8.424 53.424,8.046 54.036,8.046 C55.188,8.046 56.07,8.766 56.07,9.99 C56.07,11.214 55.188,11.934 54.036,11.934 Z M49.95,9.378 L49.95,13.41 L48.222,13.41 L48.222,9.576 C48.222,8.46 47.862,8.01 46.89,8.01 C46.368,8.01 45.828,8.28 45.486,8.676 L45.486,13.392 L43.758,13.392 L43.758,6.624 L45.126,6.624 C45.27,6.624 45.378,6.75 45.378,6.876 L45.378,7.164 C45.882,6.642 46.548,6.444 47.214,6.444 C47.97,6.444 48.6,6.66 49.104,7.092 C49.716,7.596 49.95,8.244 49.95,9.378 Z M39.564,6.444 C38.376,6.444 37.818,7.164 37.818,7.164 L37.818,3.366 L36.09,3.366 L36.09,13.392 C36.09,13.392 37.422,13.392 37.548,13.392 C37.692,13.392 37.8,13.266 37.8,13.14 L37.8,12.834 L37.8,12.834 C37.8,12.834 38.358,13.572 39.546,13.572 C41.508,13.572 43.038,12.06 43.038,10.008 C43.056,7.956 41.526,6.444 39.564,6.444 Z M39.276,11.934 C38.61,11.934 38.088,11.592 37.818,11.196 L37.818,8.784 C38.088,8.424 38.664,8.046 39.276,8.046 C40.428,8.046 41.31,8.766 41.31,9.99 C41.31,11.214 40.428,11.934 39.276,11.934 Z M34.596,6.444 C35.118,6.444 35.388,6.534 35.388,6.534 L35.388,8.136 C35.388,8.136 33.948,7.65 33.048,8.676 L33.048,13.41 L31.32,13.41 L31.32,6.624 C31.32,6.624 32.652,6.624 32.778,6.624 C32.922,6.624 33.03,6.75 33.03,6.876 L33.03,7.164 C33.354,6.786 34.056,6.444 34.596,6.444 Z M16.65,12.78 C16.56,12.564 16.47,12.33 16.38,12.132 C16.236,11.808 16.092,11.502 15.966,11.214 L15.948,11.196 C14.706,8.496 13.374,5.76 11.97,3.06 L11.916,2.952 C11.772,2.682 11.628,2.394 11.484,2.106 C11.304,1.782 11.124,1.44 10.836,1.116 C10.26,0.396 9.432,0 8.55,0 C7.65,0 6.84,0.396 6.246,1.08 C5.976,1.404 5.778,1.746 5.598,2.07 C5.454,2.358 5.31,2.646 5.166,2.916 L5.112,3.024 C3.726,5.724 2.376,8.46 1.134,11.16 L1.116,11.196 C0.99,11.484 0.846,11.79 0.702,12.114 C0.612,12.312 0.522,12.528 0.432,12.762 C0.198,13.428 0.126,14.058 0.216,14.706 C0.414,16.056 1.314,17.19 2.556,17.694 C3.024,17.892 3.51,17.982 4.014,17.982 C4.158,17.982 4.338,17.964 4.482,17.946 C5.076,17.874 5.688,17.676 6.282,17.334 C7.02,16.92 7.722,16.326 8.514,15.462 C9.306,16.326 10.026,16.92 10.746,17.334 C11.34,17.676 11.952,17.874 12.546,17.946 C12.69,17.964 12.87,17.982 13.014,17.982 C13.518,17.982 14.022,17.892 14.472,17.694 C15.732,17.19 16.614,16.038 16.812,14.706 C16.956,14.076 16.884,13.446 16.65,12.78 Z M8.532,13.716 C7.56,12.492 6.93,11.34 6.714,10.368 C6.624,9.954 6.606,9.594 6.66,9.27 C6.696,8.982 6.804,8.73 6.948,8.514 C7.29,8.028 7.866,7.722 8.532,7.722 C9.198,7.722 9.792,8.01 10.116,8.514 C10.26,8.73 10.368,8.982 10.404,9.27 C10.458,9.594 10.44,9.972 10.35,10.368 C10.134,11.322 9.504,12.474 8.532,13.716 Z M15.714,14.562 C15.588,15.498 14.958,16.308 14.076,16.668 C13.644,16.848 13.176,16.902 12.708,16.848 C12.258,16.794 11.808,16.65 11.34,16.38 C10.692,16.02 10.044,15.462 9.288,14.634 C10.476,13.176 11.196,11.844 11.466,10.656 C11.592,10.098 11.61,9.594 11.556,9.126 C11.484,8.676 11.322,8.262 11.07,7.902 C10.512,7.092 9.576,6.624 8.532,6.624 C7.488,6.624 6.552,7.11 5.994,7.902 C5.742,8.262 5.58,8.676 5.508,9.126 C5.436,9.594 5.454,10.116 5.598,10.656 C5.868,11.844 6.606,13.194 7.776,14.652 C7.038,15.48 6.372,16.038 5.724,16.398 C5.256,16.668 4.806,16.812 4.356,16.866 C3.87,16.92 3.402,16.848 2.988,16.686 C2.106,16.326 1.476,15.516 1.35,14.58 C1.296,14.13 1.332,13.68 1.512,13.176 C1.566,12.996 1.656,12.816 1.746,12.6 C1.872,12.312 2.016,12.006 2.16,11.7 L2.178,11.664 C3.42,8.982 4.752,6.246 6.138,3.582 L6.192,3.474 C6.336,3.204 6.48,2.916 6.624,2.646 C6.768,2.358 6.93,2.088 7.128,1.854 C7.506,1.422 8.01,1.188 8.568,1.188 C9.126,1.188 9.63,1.422 10.008,1.854 C10.206,2.088 10.368,2.358 10.512,2.646 C10.656,2.916 10.8,3.204 10.944,3.474 L10.998,3.582 C12.366,6.264 13.698,9 14.94,11.682 L14.94,11.7 C15.084,11.988 15.21,12.312 15.354,12.6 C15.444,12.816 15.534,12.996 15.588,13.176 C15.732,13.644 15.786,14.094 15.714,14.562 Z" id="Shape"></path>
                </g>
            </g>
        </g>
    </g>
</svg>