<?xml version="1.0" encoding="utf-8"?>
<!-- Generator: Adobe Illustrator 17.0.0, SVG Export Plug-In . SVG Version: 6.00 Build 0)  -->
<!DOCTYPE svg PUBLIC "-//W3C//DTD SVG 1.1//EN" "http://www.w3.org/Graphics/SVG/1.1/DTD/svg11.dtd">
<svg version="1.1" id="Layer_1" xmlns="http://www.w3.org/2000/svg" xmlns:xlink="http://www.w3.org/1999/xlink" x="0px" y="0px"
	 width="999.213px" height="170.079px" viewBox="0 0 999.213 170.079" enable-background="new 0 0 999.213 170.079"
	 xml:space="preserve">
<g>
	<path fill="#FFFFFF" d="M392.488,17.497c0-8.369,6.755-15.145,15.079-15.145c8.352,0,15.129,6.776,15.129,15.145
		c0,8.363-6.777,15.151-15.129,15.151C399.243,32.648,392.488,25.86,392.488,17.497z"/>
	<path fill="#009FE3" d="M630.841,118.237c0-8.363,6.762-15.146,15.09-15.146c8.342,0,15.123,6.782,15.123,15.146
		c0,8.353-6.781,15.146-15.123,15.146C637.603,133.383,630.841,126.589,630.841,118.237z"/>
	<path fill="#FFFFFF" d="M144.535,39.452c-27.523,0-47.502,19.823-47.502,47.146c0,27.318,19.979,47.152,47.502,47.152
		c27.636,0,47.691-19.834,47.691-47.152C192.226,59.275,172.17,39.452,144.535,39.452z M144.535,111.7
		c-13.007,0-22.05-10.345-22.05-25.102c0-14.761,9.043-25.085,22.05-25.085c13.086,0,22.239,10.324,22.239,25.085
		C166.774,101.588,157.815,111.7,144.535,111.7z"/>
	<path fill="#FFFFFF" d="M363.221,88.948c-1.069-1.998-2.282-3.714-3.597-5.056l-0.835-0.891l0.874-0.835
		c1.275-1.343,2.556-2.918,3.803-4.75l24.283-36.11h-29.478l-18.247,28.236c-1.041,1.515-3.123,2.295-6.253,2.295h-4.159V18.432
		c0-10.686-6.654-12.134-13.837-12.134h-12.312l0.023,126.059h26.126V94.55h2.455c2.979,0,5.012,0.346,5.941,1.948l14.41,27.218
		c4.026,7.372,8.03,8.642,15.586,8.642h20.029l-14.918-24.655L363.221,88.948z"/>
	<path fill="#FFFFFF" d="M490.071,39.246c-13.285,0-21.766,5.914-26.522,10.892l-1.587,1.615l-0.562-2.199
		c-1.392-5.329-6.097-8.286-13.174-8.286H436.51l0.067,91.046h25.953V90.351c0-4.087,0.54-7.662,1.62-10.908
		c2.89-9.822,10.947-15.947,21.021-15.947c8.102,0,11.259,4.276,11.259,15.341v39.646c0,9.443,4.366,13.831,13.815,13.831h12.338
		l-0.055-57.909C522.528,51.418,511.313,39.246,490.071,39.246z"/>
	<path fill="#FFFFFF" d="M407.907,41.306h-12.301l0.078,70.394h-0.011v20.637h13.136c0.167,0,0.294,0.021,0.456,0.021l6.131-0.021
		h6.074v-0.023h0.051l0.044-77.158C421.565,45.822,417.117,41.306,407.907,41.306z"/>
	<path fill="#FFFFFF" d="M246.478,39.452c-27.552,0-47.536,19.823-47.536,47.146c0,27.318,19.984,47.152,47.536,47.152
		c27.601,0,47.691-19.834,47.691-47.152C294.169,59.275,274.08,39.452,246.478,39.452z M246.478,111.7
		c-13.008,0-22.067-10.345-22.067-25.102c0-14.761,9.06-25.085,22.067-25.085c13.058,0,22.217,10.324,22.217,25.085
		C268.695,101.588,259.758,111.7,246.478,111.7z"/>
	<path fill="#009FE3" d="M802.755,39.452c-27.529,0-47.52,19.823-47.52,47.146c0,27.318,19.99,47.152,47.52,47.152
		c27.617,0,47.709-19.834,47.709-47.152C850.464,59.275,830.372,39.452,802.755,39.452z M802.755,111.7
		c-13.008,0-22.072-10.345-22.072-25.102c0-14.761,9.065-25.085,22.072-25.085c13.074,0,22.25,10.324,22.25,25.085
		C825.005,101.588,816.04,111.7,802.755,111.7z"/>
	<path fill="#FFFFFF" d="M608.603,41.073c-4.922,0-8.721,1.948-10.625,5.546l-0.701,1.397l-1.203-1.047
		c-4.199-3.636-11.705-7.924-23.898-7.924c-24.266,0-40.627,18.225-40.627,45.354c0,27.09,16.918,46.011,41.105,46.011
		c8.264,0,14.789-1.904,19.979-5.836l2.006-1.515v2.528c0,12.172-7.863,18.888-22.141,18.888c-6.916,0-13.219-1.692-17.44-3.219
		c-5.5-1.671-8.73-0.29-10.959,5.234l-2.07,5.089l-2.918,7.451l1.814,0.968c9.143,4.833,20.992,7.73,31.729,7.73
		c22.096,0,47.92-11.316,47.92-43.154l0.078-83.501H608.603z M577.265,107.703c-14.166,0-19.223-12.396-19.223-23.983
		c0-5.117,1.27-21.777,17.84-21.777c8.242,0,19.256,2.351,19.256,22.635C595.138,103.693,585.415,107.703,577.265,107.703z"/>
	<path fill="#FFFFFF" d="M74.871,67.716l-3.82-2.139l3.324-2.839c3.882-3.347,10.385-10.83,10.385-23.793
		c0-19.817-15.374-32.603-39.155-32.603H18.458l0,0h-3.09C8.308,6.605,2.673,12.335,2.595,19.434v6.203v93.726v12.527h12.45
		c0.039,0,0.039,0,0.062,0h31.031c26.438,0,43.521-14.389,43.521-36.684C89.66,83.196,84.136,72.945,74.871,67.716z M26.755,42.515
		L26.755,42.515v-6.644c0-5.824,2.467-8.592,7.873-8.942h10.803c9.266,0,14.828,5.552,14.828,14.845
		c0,7.077-3.803,15.323-14.488,15.323H26.755V42.515z M47.881,110.654l-21.126-0.022V92.022v-6.648c0-5.407,2.1-8.208,6.727-8.849
		h14.399c10.284,0,16.938,6.477,16.938,16.979C64.82,104.272,58.333,110.654,47.881,110.654z"/>
	<path fill="#009FE3" d="M966.395,39.546c-10.781,0-21.205,5.028-27.865,13.509l-1.894,2.372l-1.467-2.684
		c-4.791-8.753-13.076-13.197-24.59-13.197c-12.051,0-20.135,6.722-23.9,10.725l-2.461,2.667l-0.935-3.502
		c-1.381-5.057-5.869-7.818-12.684-7.818h-10.902l-0.102,90.695h24.779V92.278c0-3.524,0.445-6.982,1.324-10.602
		c2.363-9.684,8.865-20.085,19.791-19.055c6.748,0.663,10.035,5.868,10.035,15.925v53.767h24.965V92.278
		c0-4.376,0.391-7.662,1.404-10.952c2.004-9.232,8.787-18.704,19.332-18.704c7.641,0,10.459,4.315,10.459,15.925v40.504
		c0,9.187,4.086,13.263,13.24,13.263h11.648l0.045-57.909C996.618,51.262,986.417,39.546,966.395,39.546z"/>
	<path fill="#009FE3" d="M740.903,100.82c-0.078,0.089-10.76,11.337-24.791,11.337c-12.807,0-25.725-7.841-25.725-25.386
		c0-15.129,10.023-25.709,24.367-25.709c4.654,0,9.967,1.677,10.779,4.494l0.123,0.484c1.904,6.342,7.695,6.692,8.83,6.692h13.566
		V60.874c0-15.658-19.914-21.327-33.299-21.327c-28.644,0-49.457,19.962-49.457,47.42c0,27.484,20.568,47.396,48.924,47.396
		c24.621,0,37.996-16.17,38.107-16.327l0.725-0.89l-10.748-17.853L740.903,100.82z"/>
</g>
</svg>
