<?xml version="1.0" encoding="UTF-8"?>
<svg width="180px" height="36px" viewBox="0 0 180 36" version="1.1" xmlns="http://www.w3.org/2000/svg" xmlns:xlink="http://www.w3.org/1999/xlink">
    <title>CC7F013B-1CF5-4B95-AAD7-254DB73FEF22</title>
    <defs>
        <polygon id="path-1" points="0.248063202 0.189086071 15.7834179 0.189086071 15.7834179 19.1599634 0.248063202 19.1599634"></polygon>
    </defs>
    <g id="Web" stroke="none" stroke-width="1" fill="none" fill-rule="evenodd">
        <g id="Domaćinstva" transform="translate(-120.000000, -45.000000)">
            <g id="header" transform="translate(120.000000, 45.000000)">
                <g id="logo">
                    <path d="M58.0051459,22.4839085 C59.6594994,22.4839085 60.9692707,22.1276507 61.9371543,21.4148358 C62.9041397,20.7029189 63.3873331,19.620973 63.3873331,18.1701954 C63.3873331,16.7454636 62.8972541,15.6763909 61.9176948,14.9635759 C60.9381356,14.251659 59.4939443,13.8954012 57.5854204,13.8954012 C56.999541,13.8954012 56.4208466,13.9205489 55.8481397,13.9714428 C55.2757322,14.0229356 54.7605056,14.086104 54.3027593,14.1621455 L54.3027593,22.4839085 L58.0051459,22.4839085 Z M54.34078,34.1263534 C54.1366054,34.202395 53.8695617,34.2724491 53.5393497,34.3356175 C53.2082395,34.3990852 52.8394079,34.4314179 52.4322561,34.4314179 C51.6433996,34.4314179 51.0766802,34.2844241 50.7338944,33.9922328 C50.3902104,33.6997422 50.218069,33.210262 50.218069,32.522894 L50.218069,12.8263285 C50.218069,12.3937297 50.3387177,12.0569314 50.5812125,11.8144366 C50.8225098,11.5731393 51.1596075,11.3887235 51.592805,11.2614886 C52.3807634,10.9818711 53.3223019,10.790869 54.4168216,10.6887817 C55.5113414,10.5872931 56.6058611,10.5358004 57.7000815,10.5358004 C61.0072915,10.5358004 63.4699609,11.2040083 65.0862936,12.5398254 C66.7017281,13.8759418 67.5100441,15.7533306 67.5100441,18.1701954 C67.5100441,19.8499958 67.070859,21.2813139 66.1933871,22.4647484 C65.315017,23.6478836 64.0612291,24.5325405 62.4329214,25.1172225 C63.0442478,25.880632 63.6415035,26.6380541 64.227383,27.3888898 C64.8126636,28.1397256 65.365911,28.8522412 65.8877239,29.5264366 C66.408938,30.2012308 66.8801563,30.811659 67.2998819,31.3589189 C67.7202062,31.9061788 68.057304,32.3579376 68.3114744,32.7132973 C68.1839401,33.2994761 67.9043227,33.7446486 67.4720233,34.0494137 C67.0388258,34.3553763 66.5685056,34.5080582 66.0592665,34.5080582 C65.4485389,34.5080582 64.9647468,34.3610644 64.6090877,34.0688732 C64.2519318,33.7766819 63.8962728,33.3755177 63.540015,32.8662786 L58.6158736,25.7665696 L54.34078,25.7665696 L54.34078,34.1263534 Z" id="Fill-1" fill="#000000"></path>
                    <path d="M72.0905913,16.3765123 C72.2681214,16.3259177 72.5228906,16.2684374 72.8540008,16.2043709 C73.1842129,16.1409031 73.5407701,16.1088699 73.9224748,16.1088699 C74.6604374,16.1088699 75.2017098,16.248978 75.544795,16.5285954 C75.888479,16.8088116 76.0606204,17.292005 76.0606204,17.979373 L76.0606204,27.4073314 C76.0606204,28.8838553 76.4483127,29.9334686 77.224296,30.5567701 C78.0005788,31.1806703 79.0756391,31.492321 80.4503751,31.492321 C81.3404208,31.492321 82.0912565,31.4037056 82.7019842,31.2246786 C83.3133106,31.0471484 83.796504,30.8564457 84.1527617,30.6519717 L84.1527617,16.3765123 C84.3563376,16.3259177 84.6164956,16.2684374 84.9356308,16.2043709 C85.253269,16.1409031 85.6035393,16.1088699 85.9852441,16.1088699 C86.7226079,16.1088699 87.2698678,16.248978 87.6261256,16.5285954 C87.9826827,16.8088116 88.1608116,17.292005 88.1608116,17.979373 L88.1608116,30.8429738 C88.1608116,31.4037056 88.0712981,31.861452 87.893768,32.2180091 C87.714741,32.5739676 87.3590819,32.9176516 86.8246952,33.248163 C86.1627742,33.6295684 85.2912898,33.9735518 84.2099426,34.2783168 C83.128296,34.58398 81.8625331,34.7369613 80.4114561,34.7369613 C77.7904166,34.7369613 75.7483709,34.1582669 74.2856183,32.99998 C72.8219676,31.8419925 72.0905913,30.0035227 72.0905913,27.4842711 L72.0905913,16.3765123 Z" id="Fill-3" fill="#000000"></path>
                    <path d="M97.3979775,34.1264133 C97.2189505,34.2024549 96.9716657,34.2725089 96.6531293,34.3356773 C96.3348923,34.3991451 95.9852208,34.4314778 95.603516,34.4314778 C94.8655534,34.4314778 94.3179942,34.2910703 93.9626345,34.0114528 C93.6054786,33.7321347 93.4279484,33.2615152 93.4279484,32.5992948 L93.4279484,20.0787792 C93.4279484,19.442904 93.554884,18.9276773 93.8096532,18.5328 C94.0638237,18.1391202 94.4709755,17.7631035 95.0308091,17.4068457 C95.7690711,16.9490994 96.7106096,16.5673946 97.8557239,16.2617314 C99.0008383,15.9560682 100.260913,15.803985 101.634751,15.803985 C103.873786,15.803985 104.993753,16.4398603 104.993753,17.7125089 C104.993753,18.017274 104.942859,18.3037771 104.84137,18.5714195 C104.739283,18.8384632 104.624622,19.073773 104.497686,19.2773489 C104.242917,19.2267543 103.925279,19.1761597 103.543574,19.1246669 C103.16157,19.073773 102.754119,19.0486254 102.32152,19.0486254 C101.30394,19.0486254 100.374975,19.1567002 99.5355243,19.3728499 C98.6951751,19.5889996 97.9826595,19.8626295 97.3979775,20.1937397 L97.3979775,34.1264133 Z" id="Fill-5" fill="#000000"></path>
                    <path d="M114.728033,31.6451526 C115.618378,31.6451526 116.394362,31.5556391 117.056283,31.3775102 C117.717605,31.2002794 118.188823,31.0092773 118.469339,30.8048033 L118.469339,25.9576017 L114.308308,26.3770279 C113.137148,26.5045622 112.259676,26.7656183 111.674395,27.1601963 C111.088216,27.5544748 110.796025,28.1589156 110.796025,28.9732191 C110.796025,29.8126703 111.114561,30.468005 111.750437,30.9386245 C112.386312,31.4095435 113.378744,31.6451526 114.728033,31.6451526 M114.651992,15.8039551 C117.018262,15.8039551 118.901638,16.3191817 120.300923,17.3496349 C121.700507,18.3803875 122.400449,20.0027077 122.400449,22.216296 L122.400449,31.1107659 C122.400449,31.6957472 122.266927,32.1478054 122.000183,32.4651443 C121.732241,32.7845788 121.370295,33.0827576 120.911651,33.3626744 C120.24943,33.7446786 119.397405,34.0754894 118.354378,34.3554062 C117.310453,34.6347243 116.10217,34.7748324 114.728033,34.7748324 C112.259676,34.7748324 110.331692,34.2910403 108.944981,33.3240549 C107.557372,32.3579676 106.864915,30.9323376 106.864915,29.0492607 C106.864915,27.3694603 107.405588,26.085136 108.487235,25.1938927 C109.568283,24.3032482 111.127135,23.7565871 113.163193,23.5524125 L118.469339,23.0177264 L118.469339,22.1782753 C118.469339,21.0586079 118.106195,20.2443044 117.380807,19.7350653 C116.656017,19.2267243 115.644424,18.9716557 114.346328,18.9716557 C113.32785,18.9716557 112.348291,19.1117638 111.407351,19.3913813 C110.465214,19.6718969 109.625763,19.9901339 108.887501,20.3457929 C108.633331,20.1431152 108.416283,19.8946328 108.239052,19.6015435 C108.060624,19.3093522 107.972008,18.9851277 107.972008,18.6279717 C107.972008,18.1956723 108.079484,17.8400133 108.296233,17.5597971 C108.511784,17.2801796 108.84948,17.038583 109.308125,16.8341089 C110.020042,16.4778511 110.834944,16.2176931 111.750437,16.0515393 C112.666528,15.886583 113.633514,15.8039551 114.651992,15.8039551" id="Fill-7" fill="#000000"></path>
                    <path d="M129.958653,34.4313281 C129.219792,34.4313281 128.67343,34.2909206 128.317173,34.0116025 C127.960615,33.731985 127.782486,33.2616649 127.782486,32.5994445 L127.782486,9.42891642 C127.960615,9.37802245 128.214786,9.31485405 128.545896,9.23791435 C128.876108,9.16187277 129.233264,9.12385198 129.614969,9.12385198 C130.352333,9.12385198 130.899593,9.26396008 131.25585,9.54357755 C131.612407,9.82409314 131.790536,10.2944133 131.790536,10.9557356 L131.790536,34.1262636 C131.58696,34.2023052 131.325904,34.2726586 131.008266,34.335827 C130.68943,34.3992948 130.340358,34.4313281 129.958653,34.4313281" id="Fill-9" fill="#000000"></path>
                    <path d="M135.34072,32.1790004 C135.34072,31.4416366 135.562857,30.8309089 136.008629,30.3471168 C136.453202,29.8642229 137.070516,29.6217281 137.859972,29.6217281 C138.673976,29.6217281 139.297277,29.8642229 139.730475,30.3471168 C140.162774,30.8309089 140.379223,31.4416366 140.379223,32.1790004 C140.379223,32.9178611 140.162774,33.5285888 139.730475,34.0114827 C139.297277,34.4943767 138.673976,34.7368715 137.859972,34.7368715 C137.070516,34.7368715 136.453202,34.4943767 136.008629,34.0114827 C135.562857,33.5285888 135.34072,32.9178611 135.34072,32.1790004" id="Fill-11" fill="#319647"></path>
                    <path d="M151.563024,19.0097963 C150.748121,19.0097963 150.022733,19.1439168 149.387456,19.4109605 C148.750683,19.6777048 148.203722,19.9899543 147.745976,20.3456133 L147.745976,30.4998586 C148.102234,30.7543285 148.598001,30.9833514 149.234774,31.1866279 C149.870649,31.3911019 150.608612,31.4922911 151.448063,31.4922911 C153.000329,31.4922911 154.260404,30.9833514 155.22739,29.9654719 C156.194375,28.9478919 156.678167,27.3692807 156.678167,25.2320333 C156.678167,23.0693389 156.200961,21.491027 155.246849,20.4985946 C154.292437,19.5061622 153.064695,19.0097963 151.563024,19.0097963 M152.211772,15.8040748 C153.407481,15.8040748 154.527148,16.0007651 155.571074,16.3950437 C156.614101,16.7902204 157.517618,17.375501 158.281028,18.1508857 C159.044437,18.9277672 159.642292,19.9073264 160.075489,21.0904615 C160.508088,22.2735967 160.724238,23.6543202 160.724238,25.2320333 C160.724238,26.834894 160.501202,28.2350769 160.056329,29.4307859 C159.610259,30.6273929 158.98097,31.6129397 158.166965,32.3892225 C157.352063,33.166104 156.378491,33.7507859 155.246849,34.1447651 C154.114309,34.539343 152.86082,34.7369314 151.486982,34.7369314 C150.112246,34.7369314 148.897078,34.5707775 147.841178,34.2405655 C146.784978,33.9100541 145.926067,33.5286486 145.264745,33.0951518 C144.730059,32.7397921 144.348354,32.3832349 144.119631,32.0269771 C143.890608,31.6707193 143.775947,31.2126736 143.775947,30.6519418 L143.775947,9.42885655 C143.954076,9.37826195 144.208246,9.31479418 144.539356,9.23785447 C144.869568,9.16181289 145.226724,9.12409148 145.608429,9.12409148 C146.345793,9.12409148 146.887065,9.26390021 147.230749,9.54351767 C147.574433,9.82403326 147.745976,10.2943534 147.745976,10.9556757 L147.745976,16.98721 C148.304911,16.6815468 148.954259,16.4085156 149.692521,16.1663202 C150.430483,15.9247235 151.269934,15.8040748 152.211772,15.8040748" id="Fill-13" fill="#000000"></path>
                    <g id="Group-17" transform="translate(163.758836, 15.614869)">
                        <mask id="mask-2" fill="white">
                            <use xlink:href="#path-1"></use>
                        </mask>
                        <g id="Clip-16"></g>
                        <path d="M8.1111817,16.0302836 C9.00152682,16.0302836 9.77751019,15.9407701 10.4394312,15.7626412 C11.1007534,15.5854104 11.5719717,15.3944083 11.8524873,15.1899343 L11.8524873,10.3427326 L7.69145613,10.7621588 C6.52029605,10.8896931 5.64252474,11.1507493 5.05754345,11.5453272 C4.47136466,11.9396058 4.17917339,12.5440466 4.17917339,13.3583501 C4.17917339,14.1978012 4.49770977,14.853136 5.13358503,15.3237555 C5.76946029,15.7946744 6.76189272,16.0302836 8.1111817,16.0302836 M8.03514012,0.189086071 C10.4014104,0.189086071 12.2847867,0.704312682 13.6840715,1.7347659 C15.0836557,2.7655185 15.7835975,4.38783867 15.7835975,6.60142703 L15.7835975,15.4958969 C15.7835975,16.0808782 15.6500757,16.5329364 15.3833314,16.8502753 C15.1153896,17.1697098 14.7531443,17.4678886 14.2947992,17.7478054 C13.6325788,18.1298096 12.7805538,18.4606204 11.7375268,18.7405372 C10.6936017,19.0198553 9.48531892,19.1599634 8.1111817,19.1599634 C5.64252474,19.1599634 3.71454137,18.6761713 2.32812973,17.7091859 C0.940520582,16.7430985 0.248063202,15.3174686 0.248063202,13.4343917 C0.248063202,11.7545913 0.788437422,10.4702669 1.87038337,9.5790237 C2.95143119,8.68837921 4.51028358,8.14171809 6.54634179,7.93754345 L11.8524873,7.40285738 L11.8524873,6.56340624 C11.8524873,5.44373888 11.4893439,4.62943534 10.7636557,4.12019626 C10.0391651,3.6118553 9.02757256,3.35678669 7.72947692,3.35678669 C6.71099875,3.35678669 5.7314395,3.4968948 4.79049979,3.77651227 C3.8480632,4.05702786 3.00861206,4.37526486 2.27064948,4.73092391 C2.016479,4.52824615 1.79943119,4.27976383 1.62190104,3.98667443 C1.44377214,3.69448316 1.35515676,3.37025863 1.35515676,3.0131027 C1.35515676,2.58080333 1.46263285,2.22514428 1.67938129,1.94492807 C1.89493222,1.6653106 2.23262869,1.42371393 2.69127318,1.21923992 C3.40289064,0.862982121 4.21809231,0.602824116 5.13358503,0.43667027 C6.04967651,0.271713929 7.01666195,0.189086071 8.03514012,0.189086071" id="Fill-15" fill="#000000" mask="url(#mask-2)"></path>
                    </g>
                    <path d="M12.5065347,15.1636491 C11.969753,15.7767717 11.2030503,16.0845306 10.206726,16.0845306 C9.20950353,16.0845306 8.43352017,15.7767717 7.87877588,15.1636491 C7.32193597,14.5517239 7.04411476,13.8035825 7.04411476,12.9222187 C7.04411476,12.0013372 7.32193597,11.2352333 7.87877588,10.6221106 C8.43352017,10.0089879 9.20950353,9.70122911 10.206726,9.70122911 C11.2030503,9.70122911 11.969753,10.0089879 12.5065347,10.6221106 C13.0433164,11.2352333 13.311857,12.0013372 13.311857,12.9222187 C13.311857,13.8035825 13.0433164,14.5517239 12.5065347,15.1636491 M20.8294952,24.3679734 L20.8294952,20.2961563 C19.8717904,20.0123476 19.1281397,17.9454536 19.1281397,15.4339859 C19.1281397,12.7288216 19.9906428,10.5358902 21.0543268,10.5358902 C22.1183102,10.5358902 22.9805139,12.7288216 22.9805139,15.4339859 C22.9805139,17.9454536 22.2368632,20.0120482 21.2791584,20.2961563 L21.2791584,24.198227 C23.1876823,23.4722395 25.1749422,22.8291792 27.226568,22.29599 L27.226568,18.8229256 C26.6715243,18.584622 26.2482062,17.3595742 26.2482062,15.8803559 C26.2482062,14.2304931 26.7742104,12.8928798 27.4232582,12.8928798 C28.0720067,12.8928798 28.5980108,14.2304931 28.5980108,15.8803559 C28.5980108,17.3595742 28.1746927,18.584622 27.6196491,18.8229256 L27.6196491,22.1945015 C29.9335285,21.6119152 32.3261439,21.1751252 34.7759401,20.9248466 L34.7759401,13.7658611 C34.7759401,12.7327135 34.2876574,11.7603393 33.4586844,11.1436241 L19.3311168,0.642401663 C18.1770212,-0.214113929 16.5987094,-0.214113929 15.4446137,0.642401663 L1.31704615,11.1436241 C0.488073181,11.7603393 8.98128898e-05,12.7327135 8.98128898e-05,13.7658611 L8.98128898e-05,20.8032998 C5.44813971,21.5101272 12.9975119,23.0836491 16.0957572,24.8951751 C15.1503268,25.30562 13.4642395,26.0735202 11.4362644,27.1551667 C8.41346195,25.7909089 3.54560333,24.4326387 8.98128898e-05,23.7138362 L8.98128898e-05,25.5253622 C2.81003576,26.1127385 6.57918337,27.2626428 9.46996091,28.4739193 C8.25060125,29.182543 6.96986944,29.9815784 5.69392765,30.863541 C3.89437672,30.0791751 1.71042661,29.2876241 8.98128898e-05,28.7658112 L8.98128898e-05,31.5146844 C8.98128898e-05,33.3001647 1.43559917,34.7482478 3.21539127,34.7727967 C7.20847235,31.360805 13.3950836,27.263541 20.8294952,24.3679734" id="Fill-18" fill="#319647"></path>
                    <path d="M17.2377879,34.7748624 C22.5107027,31.1344466 28.5913347,28.3020474 34.7758503,26.5767418 L34.7758503,25.3552865 C29.0541705,26.5982969 20.7617464,29.2549622 13.4991767,34.7748624 L17.2377879,34.7748624 Z" id="Fill-20" fill="#319647"></path>
                    <path d="M26.3173023,34.7748624 L31.5156723,34.7748624 C33.3161214,34.7748624 34.7758802,33.3154029 34.7758802,31.5146545 L34.7758802,30.3749289 C32.3389572,31.3715526 29.4017763,32.7962844 26.3173023,34.7748624" id="Fill-22" fill="#319647"></path>
                </g>
            </g>
        </g>
    </g>
</svg>