<?xml version="1.0" encoding="UTF-8"?>
<svg width="104px" height="68px" viewBox="0 0 104 68" version="1.1" xmlns="http://www.w3.org/2000/svg" xmlns:xlink="http://www.w3.org/1999/xlink">
    <title>3822C078-7658-4D4F-8991-8688C2B2CC78</title>
    <g id="Web" stroke="none" stroke-width="1" fill="none" fill-rule="evenodd">
        <g id="Domaćinstva" transform="translate(-120.000000, -2467.000000)">
            <g id="footer" transform="translate(120.000000, 2435.000000)">
                <g id="logo" transform="translate(0.000000, 32.000000)">
                    <g id="Group-10" transform="translate(0.000000, 47.000000)">
                        <path d="M6.24014458,10.7058795 C7.56607229,10.7058795 8.61571084,10.4204819 9.39122892,9.84925301 C10.1658795,9.27889157 10.5532048,8.41185542 10.5532048,7.24901205 C10.5532048,6.10742169 10.1606747,5.25079518 9.37561446,4.67956627 C8.59055422,4.10920482 7.4333494,3.82380723 5.904,3.82380723 C5.43426506,3.82380723 4.97060241,3.84419277 4.51171084,3.88453012 C4.05325301,3.92573494 3.63990361,3.97648193 3.27339759,4.03763855 L3.27339759,10.7058795 L6.24014458,10.7058795 Z M3.30375904,20.0359518 C3.14024096,20.096241 2.9259759,20.1526265 2.66183133,20.2033735 C2.39638554,20.2545542 2.10057831,20.2797108 1.77440964,20.2797108 C1.14245783,20.2797108 0.688337349,20.1626024 0.413349398,19.9283855 C0.137927711,19.6941687 -7.10542736e-15,19.3012048 -7.10542736e-15,18.7507952 L-7.10542736e-15,2.96674699 C-7.10542736e-15,2.62019277 0.0967228916,2.3499759 0.291036145,2.15609639 C0.484481928,1.9626506 0.754698795,1.81518072 1.10168675,1.71325301 C1.73320482,1.48901205 2.48790361,1.33546988 3.36491566,1.25392771 C4.24192771,1.17281928 5.11893976,1.13161446 5.99595181,1.13161446 C8.64607229,1.13161446 10.6195663,1.66684337 11.9146988,2.7373012 C13.2093976,3.80819277 13.8569639,5.31238554 13.8569639,7.24901205 C13.8569639,8.5953253 13.5052048,9.74212048 12.8016867,10.6906988 C12.0981687,11.6384096 11.0932048,12.3475663 9.78853012,12.816 C10.2782169,13.428 10.7570602,14.0352289 11.2263614,14.6368193 C11.6952289,15.2379759 12.1389398,15.8096386 12.5566265,16.3496386 C12.9743133,16.8900723 13.3520964,17.379759 13.688241,17.8178313 C14.025253,18.2563373 14.2954699,18.618506 14.4993253,18.9034699 C14.3969639,19.3727711 14.1731566,19.7297349 13.8266024,19.9739277 C13.4791807,20.2194217 13.1022651,20.3417349 12.6941205,20.3417349 C12.2048675,20.3417349 11.8171084,20.223759 11.5321446,19.9895422 C11.2463133,19.7553253 10.9609157,19.4339277 10.6755181,19.0262169 L6.72939759,13.3364819 L3.30375904,13.3364819 L3.30375904,20.0359518 Z" id="Fill-1" fill="#000000"></path>
                        <path d="M17.5276627,5.81196145 C17.6699277,5.77119036 17.8742169,5.72521446 18.1392289,5.67403373 C18.404241,5.62285301 18.6896386,5.59726265 18.9954217,5.59726265 C19.5870361,5.59726265 20.0207711,5.71003373 20.2953253,5.93384096 C20.5711807,6.15851566 20.7086747,6.54540723 20.7086747,7.0962506 L20.7086747,14.6514795 C20.7086747,15.8342747 21.0196627,16.6757205 21.6416386,17.1749494 C22.2631807,17.6754795 23.125012,17.9248771 24.2266988,17.9248771 C24.939759,17.9248771 25.5417831,17.8537446 26.0306024,17.710612 C26.5207229,17.5679133 26.9080482,17.4152386 27.1934458,17.2517205 L27.1934458,5.81196145 C27.3565301,5.77119036 27.5651566,5.72521446 27.8206265,5.67403373 C28.0752289,5.62285301 28.3562892,5.59726265 28.6620723,5.59726265 C29.2528193,5.59726265 29.6913253,5.71003373 29.9771566,5.93384096 C30.2625542,6.15851566 30.405253,6.54540723 30.405253,7.0962506 L30.405253,17.4048289 C30.405253,17.8537446 30.3336867,18.2202506 30.1914217,18.5065157 C30.0482892,18.7919133 29.7628916,19.0673349 29.3347952,19.3319133 C28.8043373,19.6376964 28.1060241,19.9131181 27.2394217,20.1573108 C26.3728193,20.4028048 25.3583133,20.5251181 24.1954699,20.5251181 C22.0948916,20.5251181 20.4584096,20.0614554 19.2864578,19.1328289 C18.1136386,18.2050699 17.5276627,16.732106 17.5276627,14.7130699 L17.5276627,5.81196145 Z" id="Fill-3" fill="#000000"></path>
                        <path d="M37.8075036,20.0358217 C37.6639373,20.0965446 37.4657205,20.1529301 37.2106843,20.2036771 C36.9556482,20.2544241 36.6754554,20.2795807 36.3696723,20.2795807 C35.7780578,20.2795807 35.3395518,20.1676771 35.054588,19.9434361 C34.7683229,19.7196289 34.6264916,19.3422795 34.6264916,18.8122554 L34.6264916,8.77866506 C34.6264916,8.26902651 34.7275518,7.85611084 34.9322747,7.53948434 C35.1356964,7.22415904 35.4618651,6.92314699 35.9107807,6.63731566 C36.5019614,6.27080964 37.2566602,5.96502651 38.1744434,5.71996627 C39.0917928,5.47490602 40.1019614,5.35302651 41.2027807,5.35302651 C42.9967084,5.35302651 43.894106,5.86266506 43.894106,6.8823759 C43.894106,7.12656867 43.8533349,7.35644819 43.7722265,7.57071325 C43.6902506,7.78454458 43.5987325,7.97321928 43.4968048,8.13630361 C43.2925157,8.09596627 43.038347,8.05519518 42.7321301,8.01399036 C42.426347,7.97321928 42.0997446,7.95326747 41.7531904,7.95326747 C40.9373349,7.95326747 40.1930458,8.03958072 39.5203229,8.2130747 C38.8471663,8.38656867 38.2759373,8.60517108 37.8075036,8.87061687 L37.8075036,20.0358217 Z" id="Fill-5" fill="#000000"></path>
                        <path d="M51.6948723,18.047147 C52.4083663,18.047147 53.0303422,17.9755807 53.5608,17.8328819 C54.0903904,17.6906169 54.4681735,17.5375084 54.6928482,17.3739904 L54.6928482,13.4894602 L51.3587277,13.8260386 C50.4201253,13.9279663 49.7166072,14.1370265 49.2477398,14.4532193 C48.7780048,14.7689783 48.5442217,15.253894 48.5442217,15.9057976 C48.5442217,16.5785205 48.7992578,17.1037735 49.3088964,17.4806892 C49.8185349,17.8584723 50.6135711,18.047147 51.6948723,18.047147 M51.6341494,5.35302651 C53.5300048,5.35302651 55.0394024,5.76594217 56.1606072,6.59133976 C57.2822458,7.41760482 57.8430651,8.71750843 57.8430651,10.4914843 L57.8430651,17.6190506 C57.8430651,18.0879181 57.7363663,18.4500867 57.5225349,18.7046892 C57.3078361,18.960159 57.0172337,19.199147 56.6498602,19.4238217 C56.1194024,19.7296048 55.4367036,19.9950506 54.6008964,20.2192916 C53.7642217,20.4426651 52.7961253,20.5554361 51.6948723,20.5554361 C49.7166072,20.5554361 48.1716434,20.1676771 47.0604145,19.3930265 C45.9487518,18.6183759 45.3940048,17.4763518 45.3940048,15.9669542 C45.3940048,14.6210747 45.8268723,13.5918217 46.6939084,12.877894 C47.5600771,12.1639663 48.8092337,11.725894 50.4409446,11.5623759 L54.6928482,11.1338458 L54.6928482,10.4611229 C54.6928482,9.5637253 54.401812,8.91138795 53.8206072,8.50324337 C53.2398361,8.09596627 52.4291855,7.89167711 51.3890892,7.89167711 C50.5732337,7.89167711 49.7881735,8.00401446 49.0339084,8.22782169 C48.2787759,8.45249639 47.606053,8.70753253 47.0144386,8.99249639 C46.8110169,8.83027952 46.6370892,8.63119518 46.4948241,8.39654458 C46.3521253,8.16232771 46.2809928,7.90208675 46.2809928,7.61582169 C46.2809928,7.26926747 46.3668723,6.98473735 46.5408,6.76006265 C46.7134265,6.53582169 46.9840771,6.3423759 47.3514506,6.17885783 C47.9222458,5.89346024 48.5750169,5.6844 49.3088964,5.55124337 C50.0427759,5.41938795 50.8178602,5.35302651 51.6341494,5.35302651" id="Fill-7" fill="#000000"></path>
                        <path d="M63.9,20.2797976 C63.3079518,20.2797976 62.8698795,20.1674602 62.5844819,19.943653 C62.2990843,19.719412 62.1559518,19.3424964 62.1559518,18.8120386 L62.1559518,0.244713253 C62.2990843,0.203942169 62.502506,0.153195181 62.7679518,0.0911710843 C63.0325301,0.0304481928 63.3187952,8.67469879e-05 63.6245783,8.67469879e-05 C64.2153253,8.67469879e-05 64.6538313,0.112424096 64.9392289,0.33666506 C65.2250602,0.560906024 65.367759,0.937821687 65.367759,1.46784578 L65.367759,20.0360386 C65.2046747,20.0963277 64.9956145,20.1527133 64.741012,20.2034602 C64.4855422,20.2542072 64.2057831,20.2797976 63.9,20.2797976" id="Fill-9" fill="#000000"></path>
                        <path d="M68.2128,18.4749831 C68.2128,17.8842361 68.3910651,17.3949831 68.7480289,17.0072241 C69.1041253,16.6203325 69.5990169,16.4255855 70.2314024,16.4255855 C70.8841735,16.4255855 71.3834024,16.6203325 71.7303904,17.0072241 C72.0769446,17.3949831 72.2504386,17.8842361 72.2504386,18.4749831 C72.2504386,19.0670313 72.0769446,19.5562843 71.7303904,19.9436096 C71.3834024,20.3305012 70.8841735,20.5252482 70.2314024,20.5252482 C69.5990169,20.5252482 69.1041253,20.3305012 68.7480289,19.9436096 C68.3910651,19.5562843 68.2128,19.0670313 68.2128,18.4749831" id="Fill-11" fill="#329646"></path>
                        <path d="M81.2125735,7.92216867 C80.5593687,7.92216867 79.9781639,8.02973494 79.468959,8.24313253 C78.9588867,8.45696386 78.5203807,8.70766265 78.153441,8.99262651 L78.153441,17.1299277 C78.4392723,17.3333494 78.8365735,17.5168193 79.3466458,17.6799036 C79.8562843,17.8434217 80.4478988,17.9249639 81.1206217,17.9249639 C82.3641398,17.9249639 83.3738747,17.5168193 84.148959,16.7013976 C84.9236096,15.8855422 85.3113687,14.6207711 85.3113687,12.9079518 C85.3113687,11.1751807 84.9292482,9.91040964 84.1645735,9.11493976 C83.3994651,8.31990361 82.4157542,7.92216867 81.2125735,7.92216867 M81.732188,5.35315663 C82.6907422,5.35315663 83.5881398,5.51060241 84.4243807,5.82679518 C85.260188,6.14342169 85.9840916,6.61228916 86.5960916,7.23383133 C87.2076578,7.85624096 87.6869349,8.6413012 88.0339229,9.58944578 C88.3804771,10.5375904 88.5535373,11.6440482 88.5535373,12.9079518 C88.5535373,14.1926747 88.3752723,15.314747 88.0183084,16.2728675 C87.6613446,17.2318554 87.1569108,18.0216867 86.5045735,18.6436627 C85.8513687,19.2660723 85.0710795,19.734506 84.1645735,20.0506988 C83.2567663,20.3664578 82.2526699,20.5252048 81.1514169,20.5252048 C80.0497301,20.5252048 79.0759952,20.3916145 78.230212,20.1270361 C77.3835614,19.8620241 76.6952241,19.556241 76.1652,19.209253 C75.7366699,18.9242892 75.4308867,18.6388916 75.2478506,18.353494 C75.0643807,18.0676627 74.9724289,17.7007229 74.9724289,17.2518072 L74.9724289,0.244626506 C75.1151277,0.203855422 75.3189831,0.153108434 75.5839952,0.0910843373 C75.8485735,0.0307951807 76.1348386,-7.99360578e-14 76.4410554,-7.99360578e-14 C77.0313687,-7.99360578e-14 77.4651036,0.112337349 77.740959,0.336578313 C78.015947,0.560819277 78.153441,0.93773494 78.153441,1.46775904 L78.153441,6.3013012 C78.6014892,6.05624096 79.1219711,5.83720482 79.7135855,5.6433253 C80.3052,5.44987952 80.9774892,5.35315663 81.732188,5.35315663" id="Fill-13" fill="#000000"></path>
                        <path d="M97.485441,18.047147 C98.1989349,18.047147 98.8209108,17.9755807 99.3513687,17.8328819 C99.880959,17.6906169 100.258742,17.5375084 100.483417,17.3739904 L100.483417,13.4894602 L97.1492964,13.8260386 C96.210694,13.9279663 95.5071759,14.1370265 95.0383084,14.4532193 C94.5685735,14.7689783 94.3343566,15.253894 94.3343566,15.9057976 C94.3343566,16.5785205 94.5898265,17.1037735 95.0994651,17.4806892 C95.6086699,17.8584723 96.4041398,18.047147 97.485441,18.047147 M97.4242843,5.35302651 C99.3205735,5.35302651 100.829971,5.76594217 101.951176,6.59133976 C103.072381,7.41760482 103.633634,8.71750843 103.633634,10.4914843 L103.633634,17.6190506 C103.633634,18.0879181 103.526501,18.4500867 103.31267,18.7046892 C103.098405,18.960159 102.807802,19.199147 102.440429,19.4238217 C101.909971,19.7296048 101.227272,19.9950506 100.391465,20.2192916 C99.5547904,20.4426651 98.586694,20.5554361 97.485441,20.5554361 C95.5071759,20.5554361 93.962212,20.1676771 92.8509831,19.3930265 C91.7393205,18.6183759 91.1841398,17.4763518 91.1841398,15.9669542 C91.1841398,14.6210747 91.617441,13.5918217 92.4844771,12.877894 C93.3506458,12.1639663 94.5998024,11.725894 96.2315133,11.5623759 L100.483417,11.1338458 L100.483417,10.4611229 C100.483417,9.5637253 100.192381,8.91138795 99.6111759,8.50324337 C99.0304048,8.09596627 98.2197542,7.89167711 97.1796578,7.89167711 C96.3633687,7.89167711 95.5783084,8.00401446 94.8244771,8.22782169 C94.0693446,8.45249639 93.3966217,8.70753253 92.8050072,8.99249639 C92.6015855,8.83027952 92.4276578,8.63119518 92.2853928,8.39654458 C92.142694,8.16232771 92.0715614,7.90208675 92.0715614,7.61582169 C92.0715614,7.26926747 92.157441,6.98473735 92.3313687,6.76006265 C92.5039952,6.53582169 92.7746458,6.3423759 93.1420193,6.17885783 C93.7123807,5.89346024 94.3655855,5.6844 95.0994651,5.55124337 C95.8333446,5.41938795 96.6084289,5.35302651 97.4242843,5.35302651" id="Fill-15" fill="#000000"></path>
                    </g>
                    <g transform="translate(35.000000, 0.000000)" fill="#319647">
                        <path d="M12.5065347,15.1636491 C11.969753,15.7767717 11.2030503,16.0845306 10.206726,16.0845306 C9.20950353,16.0845306 8.43352017,15.7767717 7.87877588,15.1636491 C7.32193597,14.5517239 7.04411476,13.8035825 7.04411476,12.9222187 C7.04411476,12.0013372 7.32193597,11.2352333 7.87877588,10.6221106 C8.43352017,10.0089879 9.20950353,9.70122911 10.206726,9.70122911 C11.2030503,9.70122911 11.969753,10.0089879 12.5065347,10.6221106 C13.0433164,11.2352333 13.311857,12.0013372 13.311857,12.9222187 C13.311857,13.8035825 13.0433164,14.5517239 12.5065347,15.1636491 M20.8294952,24.3679734 L20.8294952,20.2961563 C19.8717904,20.0123476 19.1281397,17.9454536 19.1281397,15.4339859 C19.1281397,12.7288216 19.9906428,10.5358902 21.0543268,10.5358902 C22.1183102,10.5358902 22.9805139,12.7288216 22.9805139,15.4339859 C22.9805139,17.9454536 22.2368632,20.0120482 21.2791584,20.2961563 L21.2791584,24.198227 C23.1876823,23.4722395 25.1749422,22.8291792 27.226568,22.29599 L27.226568,18.8229256 C26.6715243,18.584622 26.2482062,17.3595742 26.2482062,15.8803559 C26.2482062,14.2304931 26.7742104,12.8928798 27.4232582,12.8928798 C28.0720067,12.8928798 28.5980108,14.2304931 28.5980108,15.8803559 C28.5980108,17.3595742 28.1746927,18.584622 27.6196491,18.8229256 L27.6196491,22.1945015 C29.9335285,21.6119152 32.3261439,21.1751252 34.7759401,20.9248466 L34.7759401,13.7658611 C34.7759401,12.7327135 34.2876574,11.7603393 33.4586844,11.1436241 L19.3311168,0.642401663 C18.1770212,-0.214113929 16.5987094,-0.214113929 15.4446137,0.642401663 L1.31704615,11.1436241 C0.488073181,11.7603393 8.98128898e-05,12.7327135 8.98128898e-05,13.7658611 L8.98128898e-05,20.8032998 C5.44813971,21.5101272 12.9975119,23.0836491 16.0957572,24.8951751 C15.1503268,25.30562 13.4642395,26.0735202 11.4362644,27.1551667 C8.41346195,25.7909089 3.54560333,24.4326387 8.98128898e-05,23.7138362 L8.98128898e-05,25.5253622 C2.81003576,26.1127385 6.57918337,27.2626428 9.46996091,28.4739193 C8.25060125,29.182543 6.96986944,29.9815784 5.69392765,30.863541 C3.89437672,30.0791751 1.71042661,29.2876241 8.98128898e-05,28.7658112 L8.98128898e-05,31.5146844 C8.98128898e-05,33.3001647 1.43559917,34.7482478 3.21539127,34.7727967 C7.20847235,31.360805 13.3950836,27.263541 20.8294952,24.3679734" id="Fill-18"></path>
                        <path d="M17.2377879,34.7748624 C22.5107027,31.1344466 28.5913347,28.3020474 34.7758503,26.5767418 L34.7758503,25.3552865 C29.0541705,26.5982969 20.7617464,29.2549622 13.4991767,34.7748624 L17.2377879,34.7748624 Z" id="Fill-20"></path>
                        <path d="M26.3173023,34.7748624 L31.5156723,34.7748624 C33.3161214,34.7748624 34.7758802,33.3154029 34.7758802,31.5146545 L34.7758802,30.3749289 C32.3389572,31.3715526 29.4017763,32.7962844 26.3173023,34.7748624" id="Fill-22"></path>
                    </g>
                </g>
            </g>
        </g>
    </g>
</svg>