<?xml version="1.0" encoding="UTF-8"?>
<svg width="64px" height="64px" viewBox="0 0 64 64" version="1.1" xmlns="http://www.w3.org/2000/svg" xmlns:xlink="http://www.w3.org/1999/xlink">
    <title>749D348F-AADA-482C-9612-633956DA0D48</title>
    <g id="Web" stroke="none" stroke-width="1" fill="none" fill-rule="evenodd">
        <g id="Prijava" transform="translate(-689.000000, -259.000000)" fill="#319647">
            <g id="Group-2" transform="translate(528.000000, 223.000000)">
                <g id="symbol" transform="translate(161.000000, 36.000000)">
                    <path d="M22.8689278,27.7277881 C21.8873841,28.8489266 20.4854135,29.4116857 18.6635633,29.4116857 C16.8400708,29.4116857 15.4211298,28.8489266 14.4067402,27.7277881 C13.3885187,26.6088392 12.8805028,25.2408093 12.8805028,23.6291726 C12.8805028,21.945275 13.3885187,20.5443992 14.4067402,19.4232606 C15.4211298,18.302122 16.8400708,17.739363 18.6635633,17.739363 C20.4854135,17.739363 21.8873841,18.302122 22.8689278,19.4232606 C23.8504715,20.5443992 24.3415171,21.945275 24.3415171,23.6291726 C24.3415171,25.2408093 23.8504715,26.6088392 22.8689278,27.7277881 M38.0880556,44.5585525 L38.0880556,37.1129442 C36.336824,36.5939797 34.9770055,32.8145164 34.9770055,28.2221182 C34.9770055,23.2755322 36.5541541,19.2656005 38.4991762,19.2656005 C40.4447458,19.2656005 42.021347,23.2755322 42.021347,28.2221182 C42.021347,32.8145164 40.6615285,36.5934323 38.9102969,37.1129442 L38.9102969,44.2481592 C42.4001692,42.9206391 46.0340158,41.7447575 49.7855601,40.769783 L49.7855601,34.4190365 C48.7706231,33.9832815 47.9965557,31.7431941 47.9965557,29.0383377 C47.9965557,26.0214458 48.9583919,23.5755243 50.1452222,23.5755243 C51.3315051,23.5755243 52.2933413,26.0214458 52.2933413,29.0383377 C52.2933413,31.7431941 51.5192739,33.9832815 50.5043369,34.4190365 L50.5043369,40.5842039 C54.7354307,39.5189032 59.1104988,38.7202015 63.5901263,38.2625492 L63.5901263,25.171833 C63.5901263,23.2826488 62.6972664,21.5045931 61.1814301,20.3768853 L35.3481637,1.17464996 C33.2378174,-0.391549985 30.3517614,-0.391549985 28.2414151,1.17464996 L2.40814874,20.3768853 C0.892312444,21.5045931 2.4491393e-12,23.2826488 2.4491393e-12,25.171833 L2.4491393e-12,38.0402922 C9.96214838,39.3327767 23.7667146,42.2100738 29.4320775,45.5225784 C27.7032905,46.2731063 24.6201594,47.6772666 20.9118622,49.6551347 C15.3844519,47.1604918 6.48322471,44.6767976 2.4491393e-12,43.3624159 L2.4491393e-12,46.6749206 C5.13818687,47.7489801 12.0303425,49.8516624 17.3163357,52.066568 C15.0866495,53.362337 12.7447399,54.8234302 10.4115892,56.4361618 C7.12098176,55.0018927 3.127473,53.5544853 2.4491393e-12,52.6003132 L2.4491393e-12,57.6268241 C2.4491393e-12,60.8917023 2.62493139,63.5396258 5.87940838,63.5845151 C13.1810424,57.3454446 24.4937029,49.8533047 38.0880556,44.5585525" id="Fill-18"></path>
                    <path d="M31.5203623,63.5882924 C41.1622636,56.9315321 52.2811335,51.7522879 63.5899621,48.5974433 L63.5899621,46.3639251 C53.1274618,48.6368584 37.964172,53.4947606 24.6840446,63.5882924 L31.5203623,63.5882924 Z" id="Fill-20"></path>
                    <path d="M48.1229028,63.5882924 L57.6284938,63.5882924 C60.9207435,63.5882924 63.5900168,60.9195665 63.5900168,57.6267694 L63.5900168,55.5426998 C59.1339289,57.3650974 53.7630839,59.9703213 48.1229028,63.5882924" id="Fill-22"></path>
                </g>
            </g>
        </g>
    </g>
</svg>